<mxfile host="app.diagrams.net" modified="2023-05-24T08:34:34.629Z" agent="Mozilla/5.0 (Windows NT 10.0; Win64; x64) AppleWebKit/537.36 (KHTML, like Gecko) Chrome/113.0.0.0 Safari/537.36" etag="VCSKoNvx0zSRU6ifdI4r" version="21.3.3" type="device">
  <diagram name="Pagina-1" id="All7uzV2OwWNBoKM_PWa">
    <mxGraphModel dx="1105" dy="1686" grid="0" gridSize="10" guides="1" tooltips="1" connect="1" arrows="1" fold="1" page="1" pageScale="1" pageWidth="1654" pageHeight="1169" background="#ffffff" math="0" shadow="0">
      <root>
        <mxCell id="0" />
        <mxCell id="1" parent="0" />
        <mxCell id="IGpdcPXpx3QODBAOmaDT-8" value="SCUOLA" style="rounded=1;whiteSpace=wrap;html=1;shadow=0;glass=0;points=[[0,0,0,0,0],[0,0.25,0,0,0],[0,0.5,0,0,0],[0,0.75,0,0,0],[0,1,0,0,0],[0.25,0,0,0,0],[0.25,1,0,0,0],[0.5,0,0,0,0],[0.5,1,0,0,0],[0.75,0,0,0,0],[0.75,1,0,0,0],[1,0,0,0,0],[1,0.25,0,0,0],[1,0.5,0,0,0],[1,0.75,0,0,0],[1,1,0,0,0]];fontSize=15;labelBackgroundColor=none;fillColor=#FAE5C7;strokeColor=#0F8B8D;fontColor=#143642;" parent="1" vertex="1">
          <mxGeometry x="1687.25" y="-438" width="182.5" height="40" as="geometry" />
        </mxCell>
        <mxCell id="IGpdcPXpx3QODBAOmaDT-10" value="Partecipa" style="rhombus;whiteSpace=wrap;html=1;rounded=1;shadow=0;glass=0;fontSize=15;align=center;verticalAlign=middle;labelBackgroundColor=none;fillColor=#FAE5C7;strokeColor=#0F8B8D;fontColor=#143642;" parent="1" vertex="1">
          <mxGeometry x="1077" y="-448" width="111.5" height="60" as="geometry" />
        </mxCell>
        <mxCell id="IGpdcPXpx3QODBAOmaDT-12" value="PERSONA" style="whiteSpace=wrap;html=1;rounded=1;shadow=0;glass=0;fontSize=15;points=[[0,0,0,0,0],[0,0.25,0,0,0],[0,0.5,0,0,0],[0,0.75,0,0,0],[0,1,0,0,0],[0.25,0,0,0,0],[0.25,1,0,0,0],[0.5,0,0,0,0],[0.5,1,0,0,0],[0.75,0,0,0,0],[0.75,1,0,0,0],[1,0,0,0,0],[1,0.25,0,0,0],[1,0.5,0,0,0],[1,0.75,0,0,0],[1,1,0,0,0]];labelBackgroundColor=none;fillColor=#FAE5C7;strokeColor=#0F8B8D;fontColor=#143642;" parent="1" vertex="1">
          <mxGeometry x="893.0000000000002" y="-438" width="100" height="40" as="geometry" />
        </mxCell>
        <mxCell id="IGpdcPXpx3QODBAOmaDT-101" value="Possiede" style="rhombus;whiteSpace=wrap;html=1;fontFamily=Helvetica;fontSize=15;labelBackgroundColor=none;rounded=1;fillColor=#FAE5C7;strokeColor=#0F8B8D;fontColor=#143642;" parent="1" vertex="1">
          <mxGeometry x="1779.75" y="-590" width="87.5" height="70" as="geometry" />
        </mxCell>
        <mxCell id="2ZxViYWchOxOmelXp1Hh-58" style="edgeStyle=none;shape=connector;rounded=1;orthogonalLoop=1;jettySize=auto;html=1;exitX=0;exitY=0.5;exitDx=0;exitDy=0;exitPerimeter=0;entryX=1;entryY=0.5;entryDx=0;entryDy=0;labelBackgroundColor=none;fontFamily=Helvetica;fontSize=15;fontColor=default;endArrow=none;endFill=0;strokeColor=#A8201A;" parent="1" source="IGpdcPXpx3QODBAOmaDT-103" target="9Mot5vRxFBjQDdBxqjVs-2" edge="1">
          <mxGeometry relative="1" as="geometry">
            <mxPoint x="2590.86" y="-13.039999999999964" as="targetPoint" />
          </mxGeometry>
        </mxCell>
        <mxCell id="IGpdcPXpx3QODBAOmaDT-103" value="ORTO" style="rounded=1;whiteSpace=wrap;html=1;shadow=0;glass=0;points=[[0,0,0,0,0],[0,0.25,0,0,0],[0,0.5,0,0,0],[0,0.75,0,0,0],[0,1,0,0,0],[0.25,0,0,0,0],[0.25,1,0,0,0],[0.5,0,0,0,0],[0.5,1,0,0,0],[0.75,0,0,0,0],[0.75,1,0,0,0],[1,0,0,0,0],[1,0.25,0,0,0],[1,0.5,0,0,0],[1,0.75,0,0,0],[1,1,0,0,0]];fontSize=15;labelBackgroundColor=none;fillColor=#FAE5C7;strokeColor=#0F8B8D;fontColor=#143642;" parent="1" vertex="1">
          <mxGeometry x="1688.75" y="-670" width="181" height="40" as="geometry" />
        </mxCell>
        <mxCell id="IGpdcPXpx3QODBAOmaDT-109" style="edgeStyle=none;shape=connector;rounded=1;orthogonalLoop=1;jettySize=auto;html=1;entryX=0.75;entryY=1;entryDx=0;entryDy=0;entryPerimeter=0;labelBackgroundColor=none;fontFamily=Helvetica;fontSize=15;fontColor=default;endArrow=none;endFill=0;exitX=0.5;exitY=1;exitDx=0;exitDy=0;strokeColor=#A8201A;" parent="1" source="2ZxViYWchOxOmelXp1Hh-26" target="IGpdcPXpx3QODBAOmaDT-8" edge="1">
          <mxGeometry relative="1" as="geometry" />
        </mxCell>
        <mxCell id="IGpdcPXpx3QODBAOmaDT-114" style="edgeStyle=none;shape=connector;rounded=1;orthogonalLoop=1;jettySize=auto;html=1;labelBackgroundColor=none;fontFamily=Helvetica;fontSize=15;fontColor=default;endArrow=oval;endFill=0;strokeColor=#A8201A;entryX=0.617;entryY=-0.25;entryDx=0;entryDy=0;entryPerimeter=0;exitX=1;exitY=0;exitDx=0;exitDy=0;exitPerimeter=0;" parent="1" source="IGpdcPXpx3QODBAOmaDT-111" target="IGpdcPXpx3QODBAOmaDT-113" edge="1">
          <mxGeometry relative="1" as="geometry">
            <mxPoint x="1748" y="-77" as="sourcePoint" />
            <mxPoint x="1845" y="-49" as="targetPoint" />
            <Array as="points" />
          </mxGeometry>
        </mxCell>
        <mxCell id="IGpdcPXpx3QODBAOmaDT-118" style="edgeStyle=none;shape=connector;rounded=1;orthogonalLoop=1;jettySize=auto;html=1;labelBackgroundColor=none;fontFamily=Helvetica;fontSize=15;fontColor=default;endArrow=oval;endFill=0;strokeColor=#A8201A;exitX=0.75;exitY=1;exitDx=0;exitDy=0;exitPerimeter=0;entryX=0.614;entryY=-0.15;entryDx=0;entryDy=0;entryPerimeter=0;" parent="1" source="IGpdcPXpx3QODBAOmaDT-111" target="IGpdcPXpx3QODBAOmaDT-115" edge="1">
          <mxGeometry relative="1" as="geometry">
            <mxPoint x="1816.5" y="-133" as="sourcePoint" />
            <mxPoint x="1882" y="15" as="targetPoint" />
            <Array as="points" />
          </mxGeometry>
        </mxCell>
        <mxCell id="IGpdcPXpx3QODBAOmaDT-120" style="edgeStyle=none;shape=connector;rounded=1;orthogonalLoop=1;jettySize=auto;html=1;exitX=0.25;exitY=1;exitDx=0;exitDy=0;exitPerimeter=0;labelBackgroundColor=none;fontFamily=Helvetica;fontSize=15;fontColor=default;endArrow=oval;endFill=0;strokeColor=#A8201A;entryX=0.517;entryY=-0.204;entryDx=0;entryDy=0;entryPerimeter=0;" parent="1" source="IGpdcPXpx3QODBAOmaDT-111" target="IGpdcPXpx3QODBAOmaDT-116" edge="1">
          <mxGeometry relative="1" as="geometry">
            <mxPoint x="1838.9" y="-131.4000000000001" as="sourcePoint" />
            <mxPoint x="1808" y="-35" as="targetPoint" />
          </mxGeometry>
        </mxCell>
        <mxCell id="IGpdcPXpx3QODBAOmaDT-111" value="CLASSE" style="rounded=1;whiteSpace=wrap;html=1;shadow=0;glass=0;points=[[0,0,0,0,0],[0,0.25,0,0,0],[0,0.5,0,0,0],[0,0.75,0,0,0],[0,1,0,0,0],[0.25,0,0,0,0],[0.25,1,0,0,0],[0.5,0,0,0,0],[0.5,1,0,0,0],[0.75,0,0,0,0],[0.75,1,0,0,0],[1,0,0,0,0],[1,0.25,0,0,0],[1,0.5,0,0,0],[1,0.75,0,0,0],[1,1,0,0,0]];fontSize=15;labelBackgroundColor=none;fillColor=#FAE5C7;strokeColor=#0F8B8D;fontColor=#143642;" parent="1" vertex="1">
          <mxGeometry x="1779.75" y="-123" width="100" height="40" as="geometry" />
        </mxCell>
        <mxCell id="IGpdcPXpx3QODBAOmaDT-113" value="Nome" style="text;html=1;align=center;verticalAlign=middle;resizable=0;points=[];autosize=1;strokeColor=none;fillColor=none;fontSize=15;fontFamily=Helvetica;labelBackgroundColor=none;rounded=1;fontColor=#143642;arcSize=50;" parent="1" vertex="1">
          <mxGeometry x="1934" y="-158" width="60" height="30" as="geometry" />
        </mxCell>
        <mxCell id="IGpdcPXpx3QODBAOmaDT-115" value="Ordine" style="text;html=1;align=center;verticalAlign=middle;resizable=0;points=[];autosize=1;strokeColor=none;fillColor=none;fontSize=15;fontFamily=Helvetica;labelBackgroundColor=none;rounded=1;fontColor=#143642;arcSize=50;" parent="1" vertex="1">
          <mxGeometry x="1815" y="-38" width="70" height="30" as="geometry" />
        </mxCell>
        <mxCell id="IGpdcPXpx3QODBAOmaDT-116" value="Tipo" style="text;html=1;align=center;verticalAlign=middle;resizable=0;points=[];autosize=1;strokeColor=none;fillColor=none;fontSize=15;fontFamily=Helvetica;labelBackgroundColor=none;rounded=1;fontColor=#143642;" parent="1" vertex="1">
          <mxGeometry x="1779.75" y="-53" width="50" height="30" as="geometry" />
        </mxCell>
        <mxCell id="9Mot5vRxFBjQDdBxqjVs-2" value="Contiene" style="rhombus;whiteSpace=wrap;html=1;fontSize=15;labelBackgroundColor=none;rounded=1;fillColor=#FAE5C7;strokeColor=#0F8B8D;fontColor=#143642;" parent="1" vertex="1">
          <mxGeometry x="1455" y="-680" width="90" height="60" as="geometry" />
        </mxCell>
        <mxCell id="ZCTQWjX--OK0ONbOPQjy-1" style="edgeStyle=orthogonalEdgeStyle;rounded=1;orthogonalLoop=1;jettySize=auto;html=1;entryX=1;entryY=0.5;entryDx=0;entryDy=0;entryPerimeter=0;fontFamily=Helvetica;fontSize=15;fontColor=default;endArrow=none;endFill=0;labelBackgroundColor=none;exitX=0.5;exitY=1;exitDx=0;exitDy=0;strokeColor=#A8201A;" parent="1" source="9Mot5vRxFBjQDdBxqjVs-57" target="9Mot5vRxFBjQDdBxqjVs-58" edge="1">
          <mxGeometry relative="1" as="geometry">
            <mxPoint x="1337" y="-826" as="sourcePoint" />
            <Array as="points">
              <mxPoint x="839" y="-628" />
            </Array>
          </mxGeometry>
        </mxCell>
        <mxCell id="9Mot5vRxFBjQDdBxqjVs-57" value="Effettuata" style="rhombus;whiteSpace=wrap;html=1;fontSize=15;labelBackgroundColor=none;rounded=1;fillColor=#FAE5C7;strokeColor=#0F8B8D;fontColor=#143642;" parent="1" vertex="1">
          <mxGeometry x="793.0000000000002" y="-842.5" width="91.5" height="67" as="geometry" />
        </mxCell>
        <mxCell id="9Mot5vRxFBjQDdBxqjVs-58" value="RILEVAZIONE" style="whiteSpace=wrap;html=1;rounded=1;shadow=0;glass=0;fontSize=15;points=[[0,0,0,0,0],[0,0.25,0,0,0],[0,0.5,0,0,0],[0,0.75,0,0,0],[0,1,0,0,0],[0.25,0,0,0,0],[0.25,1,0,0,0],[0.5,0,0,0,0],[0.5,1,0,0,0],[0.75,0,0,0,0],[0.75,1,0,0,0],[1,0,0,0,0],[1,0.25,0,0,0],[1,0.5,0,0,0],[1,0.75,0,0,0],[1,1,0,0,0]];movable=1;resizable=1;rotatable=1;deletable=1;editable=1;locked=0;connectable=1;labelBackgroundColor=none;fillColor=#FAE5C7;strokeColor=#0F8B8D;fontColor=#143642;" parent="1" vertex="1">
          <mxGeometry x="514" y="-648" width="121" height="40" as="geometry" />
        </mxCell>
        <mxCell id="9Mot5vRxFBjQDdBxqjVs-64" value="&lt;font style=&quot;font-size: 12px;&quot;&gt;Adatto: Sì o No&amp;nbsp;&lt;br&gt;&lt;br&gt;Ruolo:&amp;nbsp; Docente, Dirigente, ...&lt;br&gt;&lt;br&gt;Scopo:&amp;nbsp; Biomonitoraggio o Fitobonifica&lt;br&gt;&lt;br&gt;Tipo_substrato: Terriccio da rinvaso o Suolo pre-esistente&lt;br&gt;&lt;br&gt;Collocazione:&amp;nbsp; in Vaso o per Terra&lt;br&gt;&lt;br&gt;Tipo_Sensore: Scheda_Arduino o Sensore&lt;br&gt;&lt;br&gt;Tipo_Acquisizione:&amp;nbsp; Arduino o App&amp;nbsp;&lt;br&gt;&lt;br&gt;Ruolo: Finanziatore, Dirigente, Docente, Rilevatore Esterno&lt;br&gt;&lt;br&gt;TipoGruppo:&amp;nbsp; Pulito&amp;nbsp; o&amp;nbsp; Inquinato&lt;/font&gt;" style="rounded=1;whiteSpace=wrap;html=1;fontFamily=Helvetica;fontSize=11;labelBackgroundColor=none;fillColor=#FAE5C7;strokeColor=#0F8B8D;fontColor=#143642;" parent="1" vertex="1">
          <mxGeometry x="30.80999999999989" y="-1150" width="394.38" height="281" as="geometry" />
        </mxCell>
        <mxCell id="9Mot5vRxFBjQDdBxqjVs-66" value="&lt;span style=&quot;font-size: 15px;&quot;&gt;Ph&lt;/span&gt;" style="text;html=1;align=center;verticalAlign=middle;resizable=0;points=[];autosize=1;strokeColor=none;fillColor=none;fontSize=15;fontFamily=Helvetica;labelBackgroundColor=none;rounded=1;fontColor=#143642;" parent="1" vertex="1">
          <mxGeometry x="613" y="-563" width="40" height="30" as="geometry" />
        </mxCell>
        <mxCell id="9Mot5vRxFBjQDdBxqjVs-67" value="&lt;span style=&quot;font-size: 15px;&quot;&gt;Umidità&lt;/span&gt;" style="text;html=1;align=center;verticalAlign=middle;resizable=0;points=[];autosize=1;strokeColor=none;fillColor=none;fontSize=15;fontFamily=Helvetica;labelBackgroundColor=none;rounded=1;fontColor=#143642;" parent="1" vertex="1">
          <mxGeometry x="641" y="-587" width="70" height="30" as="geometry" />
        </mxCell>
        <mxCell id="9Mot5vRxFBjQDdBxqjVs-78" value="Rappresentata" style="rhombus;whiteSpace=wrap;html=1;rounded=1;shadow=0;glass=0;fontSize=15;align=center;verticalAlign=middle;labelBackgroundColor=none;fillColor=#FAE5C7;strokeColor=#0F8B8D;fontColor=#143642;" parent="1" vertex="1">
          <mxGeometry x="863" y="-133" width="160" height="60" as="geometry" />
        </mxCell>
        <mxCell id="9Mot5vRxFBjQDdBxqjVs-94" style="edgeStyle=none;shape=connector;rounded=1;orthogonalLoop=1;jettySize=auto;html=1;exitX=0.75;exitY=1;exitDx=0;exitDy=0;labelBackgroundColor=none;fontFamily=Helvetica;fontSize=15;fontColor=default;endArrow=oval;endFill=0;strokeColor=#A8201A;exitPerimeter=0;entryX=0.447;entryY=1.226;entryDx=0;entryDy=0;entryPerimeter=0;" parent="1" source="9Mot5vRxFBjQDdBxqjVs-58" target="9Mot5vRxFBjQDdBxqjVs-66" edge="1">
          <mxGeometry relative="1" as="geometry">
            <mxPoint x="822.48" y="-561.7599999999998" as="targetPoint" />
            <mxPoint x="791.7399999999998" y="-529.8999999999999" as="sourcePoint" />
          </mxGeometry>
        </mxCell>
        <mxCell id="9Mot5vRxFBjQDdBxqjVs-95" style="edgeStyle=none;shape=connector;rounded=1;orthogonalLoop=1;jettySize=auto;html=1;labelBackgroundColor=none;fontFamily=Helvetica;fontSize=15;fontColor=default;endArrow=oval;endFill=0;strokeColor=#A8201A;exitX=0.893;exitY=1;exitDx=0;exitDy=0;entryX=0.487;entryY=1.108;entryDx=0;entryDy=0;entryPerimeter=0;exitPerimeter=0;" parent="1" source="9Mot5vRxFBjQDdBxqjVs-58" target="9Mot5vRxFBjQDdBxqjVs-67" edge="1">
          <mxGeometry relative="1" as="geometry">
            <mxPoint x="547" y="-709" as="targetPoint" />
            <mxPoint x="766" y="-537" as="sourcePoint" />
          </mxGeometry>
        </mxCell>
        <mxCell id="9Mot5vRxFBjQDdBxqjVs-96" style="edgeStyle=none;shape=connector;rounded=1;orthogonalLoop=1;jettySize=auto;html=1;exitX=1;exitY=1;exitDx=0;exitDy=0;labelBackgroundColor=none;fontFamily=Helvetica;fontSize=15;fontColor=default;endArrow=oval;endFill=0;strokeColor=#A8201A;entryX=0.533;entryY=1.118;entryDx=0;entryDy=0;entryPerimeter=0;exitPerimeter=0;" parent="1" source="9Mot5vRxFBjQDdBxqjVs-58" target="KA5vXZ2nPaFK-a-9JE_G-69" edge="1">
          <mxGeometry relative="1" as="geometry">
            <mxPoint x="511" y="-626" as="targetPoint" />
            <mxPoint x="720.0380592228742" y="-529.6776695296637" as="sourcePoint" />
          </mxGeometry>
        </mxCell>
        <mxCell id="9Mot5vRxFBjQDdBxqjVs-86" value="Responsabile" style="rhombus;whiteSpace=wrap;html=1;fontSize=15;labelBackgroundColor=none;rounded=1;fillColor=#FAE5C7;strokeColor=#0F8B8D;fontColor=#143642;" parent="1" vertex="1">
          <mxGeometry x="504.5" y="-445" width="140" height="54" as="geometry" />
        </mxCell>
        <mxCell id="9Mot5vRxFBjQDdBxqjVs-103" value="SENSORE" style="whiteSpace=wrap;html=1;rounded=1;shadow=0;glass=0;fontSize=15;points=[[0,0,0,0,0],[0,0.25,0,0,0],[0,0.5,0,0,0],[0,0.75,0,0,0],[0,1,0,0,0],[0.25,0,0,0,0],[0.25,1,0,0,0],[0.5,0,0,0,0],[0.5,1,0,0,0],[0.75,0,0,0,0],[0.75,1,0,0,0],[1,0,0,0,0],[1,0.25,0,0,0],[1,0.5,0,0,0],[1,0.75,0,0,0],[1,1,0,0,0]];movable=1;resizable=1;rotatable=1;deletable=1;editable=1;locked=0;connectable=1;labelBackgroundColor=none;fillColor=#FAE5C7;strokeColor=#0F8B8D;fontColor=#143642;" parent="1" vertex="1">
          <mxGeometry x="524.5" y="-850" width="100" height="40" as="geometry" />
        </mxCell>
        <mxCell id="9Mot5vRxFBjQDdBxqjVs-104" value="Rilevata" style="rhombus;whiteSpace=wrap;html=1;rounded=1;shadow=0;glass=0;fontSize=15;align=center;labelBackgroundColor=none;fillColor=#FAE5C7;strokeColor=#0F8B8D;fontColor=#143642;" parent="1" vertex="1">
          <mxGeometry x="524.5" y="-756.5" width="100" height="82" as="geometry" />
        </mxCell>
        <mxCell id="2ZxViYWchOxOmelXp1Hh-9" value="Utilizza" style="rhombus;whiteSpace=wrap;html=1;fontFamily=Helvetica;fontSize=15;labelBackgroundColor=none;rounded=1;fillColor=#FAE5C7;strokeColor=#0F8B8D;fontColor=#143642;" parent="1" vertex="1">
          <mxGeometry x="1695" y="-548" width="87.5" height="70" as="geometry" />
        </mxCell>
        <mxCell id="2ZxViYWchOxOmelXp1Hh-26" value="Afferisce" style="rhombus;whiteSpace=wrap;html=1;fontFamily=Helvetica;fontSize=15;align=center;verticalAlign=middle;labelBackgroundColor=none;rounded=1;fillColor=#FAE5C7;strokeColor=#0F8B8D;fontColor=#143642;" parent="1" vertex="1">
          <mxGeometry x="1763.5" y="-305" width="120" height="71" as="geometry" />
        </mxCell>
        <mxCell id="2ZxViYWchOxOmelXp1Hh-27" value="Iscritta" style="rhombus;whiteSpace=wrap;html=1;fontFamily=Helvetica;fontSize=15;align=center;verticalAlign=middle;labelBackgroundColor=none;rounded=1;fillColor=#FAE5C7;strokeColor=#0F8B8D;fontColor=#143642;" parent="1" vertex="1">
          <mxGeometry x="1470" y="-443" width="140" height="50" as="geometry" />
        </mxCell>
        <mxCell id="2ZxViYWchOxOmelXp1Hh-42" value="SPECIE" style="rounded=1;whiteSpace=wrap;html=1;shadow=0;glass=0;points=[[0,0,0,0,0],[0,0.25,0,0,0],[0,0.5,0,0,0],[0,0.75,0,0,0],[0,1,0,0,0],[0.25,0,0,0,0],[0.25,1,0,0,0],[0.5,0,0,0,0],[0.5,1,0,0,0],[0.75,0,0,0,0],[0.75,1,0,0,0],[1,0,0,0,0],[1,0.25,0,0,0],[1,0.5,0,0,0],[1,0.75,0,0,0],[1,1,0,0,0]];fontSize=15;labelBackgroundColor=none;fillColor=#FAE5C7;strokeColor=#0F8B8D;fontColor=#143642;" parent="1" vertex="1">
          <mxGeometry x="1138.0000000000002" y="-670" width="160" height="40" as="geometry" />
        </mxCell>
        <mxCell id="2ZxViYWchOxOmelXp1Hh-57" style="edgeStyle=none;shape=connector;rounded=1;orthogonalLoop=1;jettySize=auto;html=1;exitX=0.5;exitY=1;exitDx=0;exitDy=0;labelBackgroundColor=none;fontFamily=Helvetica;fontSize=15;fontColor=default;endArrow=oval;endFill=0;strokeColor=#A8201A;" parent="1" source="9Mot5vRxFBjQDdBxqjVs-104" target="9Mot5vRxFBjQDdBxqjVs-104" edge="1">
          <mxGeometry relative="1" as="geometry" />
        </mxCell>
        <mxCell id="2ZxViYWchOxOmelXp1Hh-59" value="GRUPPO" style="whiteSpace=wrap;html=1;rounded=1;shadow=0;glass=0;fontSize=15;points=[[0,0,0,0,0],[0,0.25,0,0,0],[0,0.5,0,0,0],[0,0.75,0,0,0],[0,1,0,0,0],[0.25,0,0,0,0],[0.25,1,0,0,0],[0.5,0,0,0,0],[0.5,1,0,0,0],[0.75,0,0,0,0],[0.75,1,0,0,0],[1,0,0,0,0],[1,0.25,0,0,0],[1,0.5,0,0,0],[1,0.75,0,0,0],[1,1,0,0,0]];movable=1;resizable=1;rotatable=1;deletable=1;editable=1;locked=0;connectable=1;labelBackgroundColor=none;fillColor=#FAE5C7;strokeColor=#0F8B8D;fontColor=#143642;" parent="1" vertex="1">
          <mxGeometry x="997" y="-1035" width="100" height="40" as="geometry" />
        </mxCell>
        <mxCell id="2ZxViYWchOxOmelXp1Hh-60" value="Contenuta" style="rhombus;whiteSpace=wrap;html=1;fontSize=15;labelBackgroundColor=none;rounded=1;fillColor=#FAE5C7;strokeColor=#0F8B8D;fontColor=#143642;" parent="1" vertex="1">
          <mxGeometry x="997.0000000000002" y="-941" width="100" height="46.5" as="geometry" />
        </mxCell>
        <mxCell id="Dx_CMPOLSW68eJcPcujk-1" value="Appartiene" style="rhombus;whiteSpace=wrap;html=1;fontFamily=Helvetica;fontSize=15;align=center;verticalAlign=middle;labelBackgroundColor=none;rounded=1;fillColor=#FAE5C7;strokeColor=#0F8B8D;fontColor=#143642;" parent="1" vertex="1">
          <mxGeometry x="1241.5000000000002" y="-222" width="140" height="71" as="geometry" />
        </mxCell>
        <mxCell id="Dx_CMPOLSW68eJcPcujk-4" style="edgeStyle=orthogonalEdgeStyle;rounded=1;orthogonalLoop=1;jettySize=auto;html=1;exitX=0.5;exitY=1;exitDx=0;exitDy=0;labelBackgroundColor=none;strokeColor=#A8201A;fontColor=default;" parent="1" source="Dx_CMPOLSW68eJcPcujk-1" target="Dx_CMPOLSW68eJcPcujk-1" edge="1">
          <mxGeometry relative="1" as="geometry" />
        </mxCell>
        <mxCell id="Dx_CMPOLSW68eJcPcujk-12" value="REPLICA&amp;nbsp; /&amp;nbsp; PIANTA" style="rounded=1;whiteSpace=wrap;html=1;shadow=0;glass=0;points=[[0,0,0,0,0],[0,0.25,0,0,0],[0,0.5,0,0,0],[0,0.75,0,0,0],[0,1,0,0,0],[0.25,0,0,0,0],[0.25,1,0,0,0],[0.5,0,0,0,0],[0.5,1,0,0,0],[0.75,0,0,0,0],[0.75,1,0,0,0],[1,0,0,0,0],[1,0.25,0,0,0],[1,0.5,0,0,0],[1,0.75,0,0,0],[1,1,0,0,0]];fontSize=15;labelBackgroundColor=none;fillColor=#FAE5C7;strokeColor=#0F8B8D;fontColor=#143642;" parent="1" vertex="1">
          <mxGeometry x="967.0000000000002" y="-829" width="160" height="40" as="geometry" />
        </mxCell>
        <mxCell id="Dx_CMPOLSW68eJcPcujk-19" value="Include" style="rhombus;whiteSpace=wrap;html=1;fontSize=15;labelBackgroundColor=none;rounded=1;fillColor=#FAE5C7;strokeColor=#0F8B8D;fontColor=#143642;" parent="1" vertex="1">
          <mxGeometry x="1001.2500000000002" y="-749" width="91.5" height="67" as="geometry" />
        </mxCell>
        <mxCell id="Dx_CMPOLSW68eJcPcujk-28" value="Ospita" style="rhombus;whiteSpace=wrap;html=1;fontSize=15;labelBackgroundColor=none;rounded=1;fillColor=#FAE5C7;strokeColor=#0F8B8D;fontColor=#143642;" parent="1" vertex="1">
          <mxGeometry x="1491" y="-839" width="90" height="60" as="geometry" />
        </mxCell>
        <mxCell id="Dx_CMPOLSW68eJcPcujk-40" value="Coltiva*" style="rhombus;whiteSpace=wrap;html=1;fontSize=15;labelBackgroundColor=none;rounded=1;fillColor=#FAE5C7;strokeColor=#0F8B8D;fontColor=#143642;" parent="1" vertex="1">
          <mxGeometry x="1765" y="-964" width="90.25" height="60" as="geometry" />
        </mxCell>
        <mxCell id="77c9ratOZqriTQwKT7vz-7" value="*Classe che l&#39;ha messa a dimora" style="shape=card;whiteSpace=wrap;html=1;size=31;rounded=1;labelBackgroundColor=none;fillColor=#FAE5C7;strokeColor=#0F8B8D;fontColor=#143642;" parent="1" vertex="1">
          <mxGeometry x="1873.5" y="-995" width="242" height="48" as="geometry" />
        </mxCell>
        <mxCell id="77c9ratOZqriTQwKT7vz-8" style="edgeStyle=orthogonalEdgeStyle;rounded=1;orthogonalLoop=1;jettySize=auto;html=1;exitX=0.5;exitY=1;exitDx=0;exitDy=0;exitPerimeter=0;labelBackgroundColor=none;strokeColor=#A8201A;fontColor=default;" parent="1" source="77c9ratOZqriTQwKT7vz-7" target="77c9ratOZqriTQwKT7vz-7" edge="1">
          <mxGeometry relative="1" as="geometry" />
        </mxCell>
        <mxCell id="KA5vXZ2nPaFK-a-9JE_G-16" value="" style="endArrow=none;html=1;rounded=0;entryX=0.5;entryY=1;entryDx=0;entryDy=0;exitX=0.5;exitY=0;exitDx=0;exitDy=0;exitPerimeter=0;" parent="1" source="IGpdcPXpx3QODBAOmaDT-111" target="2ZxViYWchOxOmelXp1Hh-26" edge="1">
          <mxGeometry width="50" height="50" relative="1" as="geometry">
            <mxPoint x="1779" y="-147" as="sourcePoint" />
            <mxPoint x="1511" y="-416" as="targetPoint" />
          </mxGeometry>
        </mxCell>
        <mxCell id="KA5vXZ2nPaFK-a-9JE_G-18" value="" style="endArrow=none;html=1;rounded=0;entryX=0;entryY=0.5;entryDx=0;entryDy=0;entryPerimeter=0;exitX=1;exitY=0.5;exitDx=0;exitDy=0;" parent="1" source="9Mot5vRxFBjQDdBxqjVs-86" target="IGpdcPXpx3QODBAOmaDT-12" edge="1">
          <mxGeometry width="50" height="50" relative="1" as="geometry">
            <mxPoint x="1456" y="-313" as="sourcePoint" />
            <mxPoint x="1506" y="-363" as="targetPoint" />
          </mxGeometry>
        </mxCell>
        <mxCell id="KA5vXZ2nPaFK-a-9JE_G-20" value="" style="endArrow=none;html=1;rounded=0;entryX=0;entryY=0.5;entryDx=0;entryDy=0;exitX=1;exitY=0.5;exitDx=0;exitDy=0;exitPerimeter=0;" parent="1" source="2ZxViYWchOxOmelXp1Hh-42" target="9Mot5vRxFBjQDdBxqjVs-2" edge="1">
          <mxGeometry width="50" height="50" relative="1" as="geometry">
            <mxPoint x="1173" y="-976" as="sourcePoint" />
            <mxPoint x="1223" y="-1026" as="targetPoint" />
          </mxGeometry>
        </mxCell>
        <mxCell id="KA5vXZ2nPaFK-a-9JE_G-21" value="" style="endArrow=none;html=1;rounded=0;entryX=0;entryY=0.5;entryDx=0;entryDy=0;entryPerimeter=0;exitX=1;exitY=0.5;exitDx=0;exitDy=0;" parent="1" source="9Mot5vRxFBjQDdBxqjVs-78" target="IGpdcPXpx3QODBAOmaDT-111" edge="1">
          <mxGeometry width="50" height="50" relative="1" as="geometry">
            <mxPoint x="1173" y="-475" as="sourcePoint" />
            <mxPoint x="1223" y="-525" as="targetPoint" />
          </mxGeometry>
        </mxCell>
        <mxCell id="KA5vXZ2nPaFK-a-9JE_G-23" value="" style="endArrow=none;html=1;rounded=0;entryX=0;entryY=0.5;entryDx=0;entryDy=0;entryPerimeter=0;exitX=1;exitY=0.5;exitDx=0;exitDy=0;" parent="1" source="2ZxViYWchOxOmelXp1Hh-27" target="IGpdcPXpx3QODBAOmaDT-8" edge="1">
          <mxGeometry width="50" height="50" relative="1" as="geometry">
            <mxPoint x="1275" y="-435" as="sourcePoint" />
            <mxPoint x="1719" y="-349" as="targetPoint" />
            <Array as="points" />
          </mxGeometry>
        </mxCell>
        <mxCell id="2ZxViYWchOxOmelXp1Hh-18" value="PROGETTO" style="rounded=1;whiteSpace=wrap;html=1;shadow=0;glass=0;points=[[0,0,0,0,0],[0,0.25,0,0,0],[0,0.5,0,0,0],[0,0.75,0,0,0],[0,1,0,0,0],[0.25,0,0,0,0],[0.25,1,0,0,0],[0.5,0,0,0,0],[0.5,1,0,0,0],[0.75,0,0,0,0],[0.75,1,0,0,0],[1,0,0,0,0],[1,0.25,0,0,0],[1,0.5,0,0,0],[1,0.75,0,0,0],[1,1,0,0,0]];fontSize=15;labelBackgroundColor=none;fillColor=#FAE5C7;strokeColor=#0F8B8D;fontColor=#143642;" parent="1" vertex="1">
          <mxGeometry x="1251" y="-438" width="130.5" height="40" as="geometry" />
        </mxCell>
        <mxCell id="KA5vXZ2nPaFK-a-9JE_G-28" value="" style="endArrow=none;html=1;rounded=0;entryX=0;entryY=0.5;entryDx=0;entryDy=0;entryPerimeter=0;exitX=1;exitY=0.5;exitDx=0;exitDy=0;" parent="1" source="IGpdcPXpx3QODBAOmaDT-10" target="2ZxViYWchOxOmelXp1Hh-18" edge="1">
          <mxGeometry width="50" height="50" relative="1" as="geometry">
            <mxPoint x="1369" y="-422" as="sourcePoint" />
            <mxPoint x="1419" y="-472" as="targetPoint" />
          </mxGeometry>
        </mxCell>
        <mxCell id="KA5vXZ2nPaFK-a-9JE_G-29" value="" style="endArrow=none;html=1;rounded=0;entryX=1;entryY=0.5;entryDx=0;entryDy=0;entryPerimeter=0;exitX=0;exitY=0.5;exitDx=0;exitDy=0;" parent="1" source="IGpdcPXpx3QODBAOmaDT-10" target="IGpdcPXpx3QODBAOmaDT-12" edge="1">
          <mxGeometry width="50" height="50" relative="1" as="geometry">
            <mxPoint x="1369" y="-422" as="sourcePoint" />
            <mxPoint x="1419" y="-472" as="targetPoint" />
          </mxGeometry>
        </mxCell>
        <mxCell id="KA5vXZ2nPaFK-a-9JE_G-30" value="" style="endArrow=none;html=1;rounded=0;entryX=0.5;entryY=1;entryDx=0;entryDy=0;entryPerimeter=0;exitX=0.5;exitY=0;exitDx=0;exitDy=0;" parent="1" source="9Mot5vRxFBjQDdBxqjVs-104" target="9Mot5vRxFBjQDdBxqjVs-103" edge="1">
          <mxGeometry width="50" height="50" relative="1" as="geometry">
            <mxPoint x="1369" y="-794" as="sourcePoint" />
            <mxPoint x="1419" y="-844" as="targetPoint" />
          </mxGeometry>
        </mxCell>
        <mxCell id="KA5vXZ2nPaFK-a-9JE_G-31" value="" style="endArrow=none;html=1;rounded=0;exitX=0.5;exitY=0;exitDx=0;exitDy=0;exitPerimeter=0;entryX=0.5;entryY=1;entryDx=0;entryDy=0;" parent="1" source="9Mot5vRxFBjQDdBxqjVs-58" target="9Mot5vRxFBjQDdBxqjVs-104" edge="1">
          <mxGeometry width="50" height="50" relative="1" as="geometry">
            <mxPoint x="1369" y="-794" as="sourcePoint" />
            <mxPoint x="1419" y="-844" as="targetPoint" />
          </mxGeometry>
        </mxCell>
        <mxCell id="KA5vXZ2nPaFK-a-9JE_G-33" value="" style="endArrow=none;html=1;rounded=0;entryX=0;entryY=0.5;entryDx=0;entryDy=0;entryPerimeter=0;exitX=1;exitY=0.5;exitDx=0;exitDy=0;" parent="1" source="9Mot5vRxFBjQDdBxqjVs-57" target="Dx_CMPOLSW68eJcPcujk-12" edge="1">
          <mxGeometry width="50" height="50" relative="1" as="geometry">
            <mxPoint x="1369" y="-794" as="sourcePoint" />
            <mxPoint x="1419" y="-844" as="targetPoint" />
          </mxGeometry>
        </mxCell>
        <mxCell id="KA5vXZ2nPaFK-a-9JE_G-34" value="" style="endArrow=none;html=1;rounded=0;exitX=0.5;exitY=0;exitDx=0;exitDy=0;entryX=0.5;entryY=1;entryDx=0;entryDy=0;entryPerimeter=0;strokeColor=#A8201A;" parent="1" source="9Mot5vRxFBjQDdBxqjVs-78" target="IGpdcPXpx3QODBAOmaDT-12" edge="1">
          <mxGeometry width="50" height="50" relative="1" as="geometry">
            <mxPoint x="1051" y="-254" as="sourcePoint" />
            <mxPoint x="1101" y="-304" as="targetPoint" />
          </mxGeometry>
        </mxCell>
        <mxCell id="KA5vXZ2nPaFK-a-9JE_G-35" value="" style="endArrow=none;html=1;rounded=0;entryX=0;entryY=0.5;entryDx=0;entryDy=0;entryPerimeter=0;exitX=0.5;exitY=1;exitDx=0;exitDy=0;" parent="1" source="Dx_CMPOLSW68eJcPcujk-19" target="2ZxViYWchOxOmelXp1Hh-42" edge="1">
          <mxGeometry width="50" height="50" relative="1" as="geometry">
            <mxPoint x="1051" y="-920" as="sourcePoint" />
            <mxPoint x="1101" y="-970" as="targetPoint" />
            <Array as="points">
              <mxPoint x="1047" y="-650" />
            </Array>
          </mxGeometry>
        </mxCell>
        <mxCell id="KA5vXZ2nPaFK-a-9JE_G-36" value="" style="endArrow=none;html=1;rounded=0;entryX=0.5;entryY=0;entryDx=0;entryDy=0;exitX=0.5;exitY=1;exitDx=0;exitDy=0;exitPerimeter=0;" parent="1" source="Dx_CMPOLSW68eJcPcujk-12" target="Dx_CMPOLSW68eJcPcujk-19" edge="1">
          <mxGeometry width="50" height="50" relative="1" as="geometry">
            <mxPoint x="1051" y="-920" as="sourcePoint" />
            <mxPoint x="1101" y="-970" as="targetPoint" />
          </mxGeometry>
        </mxCell>
        <mxCell id="KA5vXZ2nPaFK-a-9JE_G-38" value="" style="endArrow=none;html=1;rounded=0;exitX=0;exitY=0.5;exitDx=0;exitDy=0;entryX=1;entryY=0.5;entryDx=0;entryDy=0;entryPerimeter=0;" parent="1" source="Dx_CMPOLSW68eJcPcujk-28" target="Dx_CMPOLSW68eJcPcujk-12" edge="1">
          <mxGeometry width="50" height="50" relative="1" as="geometry">
            <mxPoint x="1051" y="-1071" as="sourcePoint" />
            <mxPoint x="1101" y="-1121" as="targetPoint" />
          </mxGeometry>
        </mxCell>
        <mxCell id="KA5vXZ2nPaFK-a-9JE_G-39" style="edgeStyle=orthogonalEdgeStyle;rounded=1;orthogonalLoop=1;jettySize=auto;html=1;entryX=1;entryY=0.5;entryDx=0;entryDy=0;fontFamily=Helvetica;fontSize=15;fontColor=default;endArrow=none;endFill=0;labelBackgroundColor=none;exitX=0.5;exitY=0;exitDx=0;exitDy=0;strokeColor=#A8201A;exitPerimeter=0;" parent="1" source="IGpdcPXpx3QODBAOmaDT-103" target="Dx_CMPOLSW68eJcPcujk-28" edge="1">
          <mxGeometry relative="1" as="geometry">
            <mxPoint x="1902" y="-1502" as="sourcePoint" />
            <mxPoint x="1746" y="-1215" as="targetPoint" />
            <Array as="points">
              <mxPoint x="1779" y="-809" />
            </Array>
          </mxGeometry>
        </mxCell>
        <mxCell id="KA5vXZ2nPaFK-a-9JE_G-40" value="" style="endArrow=none;html=1;rounded=0;entryX=0.5;entryY=1;entryDx=0;entryDy=0;entryPerimeter=0;exitX=0.5;exitY=0;exitDx=0;exitDy=0;" parent="1" source="2ZxViYWchOxOmelXp1Hh-60" target="2ZxViYWchOxOmelXp1Hh-59" edge="1">
          <mxGeometry width="50" height="50" relative="1" as="geometry">
            <mxPoint x="1461" y="-644" as="sourcePoint" />
            <mxPoint x="1511" y="-694" as="targetPoint" />
          </mxGeometry>
        </mxCell>
        <mxCell id="KA5vXZ2nPaFK-a-9JE_G-41" value="" style="endArrow=none;html=1;rounded=0;entryX=0.5;entryY=1;entryDx=0;entryDy=0;exitX=0.5;exitY=0;exitDx=0;exitDy=0;exitPerimeter=0;" parent="1" source="Dx_CMPOLSW68eJcPcujk-12" target="2ZxViYWchOxOmelXp1Hh-60" edge="1">
          <mxGeometry width="50" height="50" relative="1" as="geometry">
            <mxPoint x="1461" y="-910" as="sourcePoint" />
            <mxPoint x="1511" y="-960" as="targetPoint" />
          </mxGeometry>
        </mxCell>
        <mxCell id="KA5vXZ2nPaFK-a-9JE_G-42" value="" style="endArrow=none;html=1;rounded=0;entryX=0.25;entryY=1;entryDx=0;entryDy=0;entryPerimeter=0;exitX=0.5;exitY=0;exitDx=0;exitDy=0;" parent="1" source="2ZxViYWchOxOmelXp1Hh-9" target="IGpdcPXpx3QODBAOmaDT-103" edge="1">
          <mxGeometry width="50" height="50" relative="1" as="geometry">
            <mxPoint x="1597" y="-732" as="sourcePoint" />
            <mxPoint x="1647" y="-782" as="targetPoint" />
          </mxGeometry>
        </mxCell>
        <mxCell id="KA5vXZ2nPaFK-a-9JE_G-44" value="" style="endArrow=none;html=1;rounded=0;exitX=0.5;exitY=1;exitDx=0;exitDy=0;" parent="1" source="2ZxViYWchOxOmelXp1Hh-9" edge="1">
          <mxGeometry width="50" height="50" relative="1" as="geometry">
            <mxPoint x="1597" y="-732" as="sourcePoint" />
            <mxPoint x="1739" y="-442" as="targetPoint" />
          </mxGeometry>
        </mxCell>
        <mxCell id="KA5vXZ2nPaFK-a-9JE_G-47" value="" style="endArrow=none;html=1;rounded=0;entryX=0.5;entryY=1;entryDx=0;entryDy=0;" parent="1" target="IGpdcPXpx3QODBAOmaDT-101" edge="1">
          <mxGeometry width="50" height="50" relative="1" as="geometry">
            <mxPoint x="1830" y="-439" as="sourcePoint" />
            <mxPoint x="1647" y="-782" as="targetPoint" />
          </mxGeometry>
        </mxCell>
        <mxCell id="KA5vXZ2nPaFK-a-9JE_G-49" value="" style="endArrow=none;html=1;rounded=0;entryX=0.5;entryY=0;entryDx=0;entryDy=0;exitX=0.75;exitY=1;exitDx=0;exitDy=0;exitPerimeter=0;" parent="1" source="IGpdcPXpx3QODBAOmaDT-103" target="IGpdcPXpx3QODBAOmaDT-101" edge="1">
          <mxGeometry width="50" height="50" relative="1" as="geometry">
            <mxPoint x="1597" y="-732" as="sourcePoint" />
            <mxPoint x="1647" y="-782" as="targetPoint" />
          </mxGeometry>
        </mxCell>
        <mxCell id="KA5vXZ2nPaFK-a-9JE_G-50" value="" style="endArrow=none;html=1;rounded=0;exitX=1;exitY=0.5;exitDx=0;exitDy=0;exitPerimeter=0;entryX=0;entryY=0.5;entryDx=0;entryDy=0;" parent="1" source="2ZxViYWchOxOmelXp1Hh-18" target="2ZxViYWchOxOmelXp1Hh-27" edge="1">
          <mxGeometry width="50" height="50" relative="1" as="geometry">
            <mxPoint x="1597" y="-732" as="sourcePoint" />
            <mxPoint x="1647" y="-782" as="targetPoint" />
          </mxGeometry>
        </mxCell>
        <mxCell id="KA5vXZ2nPaFK-a-9JE_G-52" style="edgeStyle=orthogonalEdgeStyle;rounded=1;orthogonalLoop=1;jettySize=auto;html=1;entryX=0.909;entryY=-0.062;entryDx=0;entryDy=0;entryPerimeter=0;fontFamily=Helvetica;fontSize=15;fontColor=default;endArrow=none;endFill=0;labelBackgroundColor=none;exitX=0;exitY=0.5;exitDx=0;exitDy=0;strokeColor=#A8201A;" parent="1" source="Dx_CMPOLSW68eJcPcujk-40" target="Dx_CMPOLSW68eJcPcujk-12" edge="1">
          <mxGeometry relative="1" as="geometry">
            <mxPoint x="1753" y="-1824" as="sourcePoint" />
            <mxPoint x="1597" y="-1537" as="targetPoint" />
            <Array as="points">
              <mxPoint x="1112" y="-934" />
            </Array>
          </mxGeometry>
        </mxCell>
        <mxCell id="KA5vXZ2nPaFK-a-9JE_G-53" style="edgeStyle=orthogonalEdgeStyle;rounded=1;orthogonalLoop=1;jettySize=auto;html=1;entryX=1;entryY=0.5;entryDx=0;entryDy=0;fontFamily=Helvetica;fontSize=15;fontColor=default;endArrow=none;endFill=0;labelBackgroundColor=none;strokeColor=#A8201A;exitX=1;exitY=0.5;exitDx=0;exitDy=0;exitPerimeter=0;" parent="1" source="IGpdcPXpx3QODBAOmaDT-111" target="Dx_CMPOLSW68eJcPcujk-40" edge="1">
          <mxGeometry relative="1" as="geometry">
            <mxPoint x="2111" y="-749" as="sourcePoint" />
            <mxPoint x="2029" y="-1459" as="targetPoint" />
            <Array as="points">
              <mxPoint x="2174" y="-103" />
              <mxPoint x="2174" y="-934" />
            </Array>
          </mxGeometry>
        </mxCell>
        <mxCell id="KA5vXZ2nPaFK-a-9JE_G-56" style="edgeStyle=orthogonalEdgeStyle;rounded=1;orthogonalLoop=1;jettySize=auto;html=1;entryX=1;entryY=0.5;entryDx=0;entryDy=0;fontFamily=Helvetica;fontSize=15;fontColor=default;endArrow=none;endFill=0;labelBackgroundColor=none;exitX=0.25;exitY=1;exitDx=0;exitDy=0;strokeColor=#A8201A;exitPerimeter=0;" parent="1" source="IGpdcPXpx3QODBAOmaDT-8" target="Dx_CMPOLSW68eJcPcujk-1" edge="1">
          <mxGeometry relative="1" as="geometry">
            <mxPoint x="1618" y="-317" as="sourcePoint" />
            <mxPoint x="1462" y="-30" as="targetPoint" />
            <Array as="points">
              <mxPoint x="1733" y="-187" />
            </Array>
          </mxGeometry>
        </mxCell>
        <mxCell id="KA5vXZ2nPaFK-a-9JE_G-61" style="edgeStyle=orthogonalEdgeStyle;rounded=1;orthogonalLoop=1;jettySize=auto;html=1;entryX=0;entryY=0.5;entryDx=0;entryDy=0;fontFamily=Helvetica;fontSize=15;fontColor=default;endArrow=none;endFill=0;labelBackgroundColor=none;exitX=0.75;exitY=1;exitDx=0;exitDy=0;strokeColor=#A8201A;exitPerimeter=0;" parent="1" source="IGpdcPXpx3QODBAOmaDT-12" target="Dx_CMPOLSW68eJcPcujk-1" edge="1">
          <mxGeometry relative="1" as="geometry">
            <mxPoint x="1168" y="-288" as="sourcePoint" />
            <mxPoint x="1012" y="-1" as="targetPoint" />
            <Array as="points">
              <mxPoint x="968" y="-187" />
            </Array>
          </mxGeometry>
        </mxCell>
        <mxCell id="KA5vXZ2nPaFK-a-9JE_G-63" value="Ciclo_Istruzione" style="text;html=1;align=center;verticalAlign=middle;resizable=0;points=[];autosize=1;strokeColor=none;fillColor=none;fontSize=15;fontFamily=Helvetica;labelBackgroundColor=none;rounded=1;fontColor=#143642;" parent="1" vertex="1">
          <mxGeometry x="1988" y="-450" width="125" height="30" as="geometry" />
        </mxCell>
        <mxCell id="KA5vXZ2nPaFK-a-9JE_G-64" value="cod_Meccanografico" style="text;html=1;align=center;verticalAlign=middle;resizable=0;points=[];autosize=1;strokeColor=none;fillColor=none;fontSize=15;fontFamily=Helvetica;labelBackgroundColor=none;rounded=1;fontColor=#143642;" parent="1" vertex="1">
          <mxGeometry x="1974" y="-301" width="160" height="30" as="geometry" />
        </mxCell>
        <mxCell id="KA5vXZ2nPaFK-a-9JE_G-65" value="Collabora" style="text;html=1;align=center;verticalAlign=middle;resizable=0;points=[];autosize=1;strokeColor=none;fillColor=none;fontSize=15;fontFamily=Helvetica;labelBackgroundColor=none;rounded=1;fontColor=#143642;" parent="1" vertex="1">
          <mxGeometry x="1947" y="-415" width="90" height="30" as="geometry" />
        </mxCell>
        <mxCell id="KA5vXZ2nPaFK-a-9JE_G-67" value="Tipo" style="text;html=1;align=center;verticalAlign=middle;resizable=0;points=[];autosize=1;strokeColor=none;fillColor=none;fontSize=15;fontFamily=Helvetica;labelBackgroundColor=none;rotation=0;rounded=1;fontColor=#143642;" parent="1" vertex="1">
          <mxGeometry x="1962" y="-372" width="50" height="30" as="geometry" />
        </mxCell>
        <mxCell id="KA5vXZ2nPaFK-a-9JE_G-68" value="Comune" style="text;html=1;align=center;verticalAlign=middle;resizable=0;points=[];autosize=1;strokeColor=none;fillColor=none;fontSize=15;fontFamily=Helvetica;labelBackgroundColor=none;rounded=1;fontColor=#143642;" parent="1" vertex="1">
          <mxGeometry x="1820" y="-514" width="80" height="30" as="geometry" />
        </mxCell>
        <mxCell id="KA5vXZ2nPaFK-a-9JE_G-69" value="Temperatura" style="text;html=1;align=center;verticalAlign=middle;resizable=0;points=[];autosize=1;strokeColor=none;fillColor=none;fontSize=15;fontFamily=Helvetica;labelBackgroundColor=none;rounded=1;fontColor=#143642;" parent="1" vertex="1">
          <mxGeometry x="647" y="-620" width="102" height="30" as="geometry" />
        </mxCell>
        <mxCell id="KA5vXZ2nPaFK-a-9JE_G-72" style="edgeStyle=none;shape=connector;rounded=1;orthogonalLoop=1;jettySize=auto;html=1;exitX=0.207;exitY=0.975;exitDx=0;exitDy=0;labelBackgroundColor=none;fontFamily=Helvetica;fontSize=15;fontColor=default;endArrow=oval;endFill=0;strokeColor=#A8201A;exitPerimeter=0;" parent="1" source="9Mot5vRxFBjQDdBxqjVs-58" target="KA5vXZ2nPaFK-a-9JE_G-74" edge="1">
          <mxGeometry relative="1" as="geometry">
            <mxPoint x="250" y="-341" as="targetPoint" />
            <mxPoint x="361.0380592228744" y="-504.14213562373084" as="sourcePoint" />
          </mxGeometry>
        </mxCell>
        <mxCell id="KA5vXZ2nPaFK-a-9JE_G-73" style="edgeStyle=none;shape=connector;rounded=1;orthogonalLoop=1;jettySize=auto;html=1;labelBackgroundColor=none;fontFamily=Helvetica;fontSize=15;fontColor=default;endArrow=oval;endFill=0;strokeColor=#A8201A;entryX=0.509;entryY=1.108;entryDx=0;entryDy=0;entryPerimeter=0;exitX=0.124;exitY=1.008;exitDx=0;exitDy=0;exitPerimeter=0;" parent="1" source="9Mot5vRxFBjQDdBxqjVs-58" target="KA5vXZ2nPaFK-a-9JE_G-75" edge="1">
          <mxGeometry relative="1" as="geometry">
            <mxPoint x="378.83586173358685" y="-508.02504849050433" as="sourcePoint" />
            <mxPoint x="330" y="-546" as="targetPoint" />
          </mxGeometry>
        </mxCell>
        <mxCell id="KA5vXZ2nPaFK-a-9JE_G-74" value="&lt;span style=&quot;font-size: 15px;&quot;&gt;Biomassa&lt;/span&gt;" style="text;html=1;align=center;verticalAlign=middle;resizable=0;points=[];autosize=1;strokeColor=none;fillColor=none;fontSize=15;fontFamily=Helvetica;labelBackgroundColor=none;rounded=1;fontColor=#143642;" parent="1" vertex="1">
          <mxGeometry x="399" y="-526" width="90" height="30" as="geometry" />
        </mxCell>
        <mxCell id="KA5vXZ2nPaFK-a-9JE_G-75" value="&lt;span style=&quot;font-size: 15px;&quot;&gt;Danni&lt;/span&gt;" style="text;html=1;align=center;verticalAlign=middle;resizable=0;points=[];autosize=1;strokeColor=none;fillColor=none;fontSize=15;fontFamily=Helvetica;labelBackgroundColor=none;rounded=1;fontColor=#143642;" parent="1" vertex="1">
          <mxGeometry x="389.5" y="-563" width="60" height="30" as="geometry" />
        </mxCell>
        <mxCell id="KA5vXZ2nPaFK-a-9JE_G-76" style="edgeStyle=none;shape=connector;rounded=1;orthogonalLoop=1;jettySize=auto;html=1;exitX=0.25;exitY=1;exitDx=0;exitDy=0;labelBackgroundColor=none;fontFamily=Helvetica;fontSize=15;fontColor=default;endArrow=oval;endFill=0;strokeColor=#A8201A;exitPerimeter=0;" parent="1" source="9Mot5vRxFBjQDdBxqjVs-58" target="KA5vXZ2nPaFK-a-9JE_G-79" edge="1">
          <mxGeometry relative="1" as="geometry">
            <mxPoint x="342" y="-490" as="sourcePoint" />
          </mxGeometry>
        </mxCell>
        <mxCell id="KA5vXZ2nPaFK-a-9JE_G-77" style="edgeStyle=none;shape=connector;rounded=1;orthogonalLoop=1;jettySize=auto;html=1;exitX=0.377;exitY=0.992;exitDx=0;exitDy=0;labelBackgroundColor=none;fontFamily=Helvetica;fontSize=15;fontColor=default;endArrow=oval;endFill=0;strokeColor=#A8201A;entryX=0.55;entryY=0.011;entryDx=0;entryDy=0;entryPerimeter=0;exitPerimeter=0;" parent="1" source="9Mot5vRxFBjQDdBxqjVs-58" target="KA5vXZ2nPaFK-a-9JE_G-80" edge="1">
          <mxGeometry relative="1" as="geometry">
            <mxPoint x="238" y="-234" as="targetPoint" />
            <mxPoint x="361.0380592228744" y="-475.85786437626916" as="sourcePoint" />
          </mxGeometry>
        </mxCell>
        <mxCell id="KA5vXZ2nPaFK-a-9JE_G-79" value="&lt;span style=&quot;font-size: 15px;&quot;&gt;Fioritura&lt;/span&gt;" style="text;html=1;align=center;verticalAlign=middle;resizable=0;points=[];autosize=1;strokeColor=none;fillColor=none;fontSize=15;fontFamily=Helvetica;labelBackgroundColor=none;rounded=1;fontColor=#143642;" parent="1" vertex="1">
          <mxGeometry x="427" y="-498" width="80" height="30" as="geometry" />
        </mxCell>
        <mxCell id="KA5vXZ2nPaFK-a-9JE_G-80" value="&lt;span style=&quot;font-size: 15px;&quot;&gt;Struttura&lt;/span&gt;" style="text;html=1;align=center;verticalAlign=middle;resizable=0;points=[];autosize=1;strokeColor=none;fillColor=none;fontSize=15;fontFamily=Helvetica;labelBackgroundColor=none;rounded=1;fontColor=#143642;" parent="1" vertex="1">
          <mxGeometry x="492" y="-498" width="80" height="30" as="geometry" />
        </mxCell>
        <mxCell id="KA5vXZ2nPaFK-a-9JE_G-81" value="&lt;span style=&quot;font-size: 15px;&quot;&gt;Frutticazione&lt;br&gt;&lt;/span&gt;" style="text;html=1;align=center;verticalAlign=middle;resizable=0;points=[];autosize=1;strokeColor=none;fillColor=none;fontSize=15;fontFamily=Helvetica;labelBackgroundColor=none;rounded=1;fontColor=#143642;" parent="1" vertex="1">
          <mxGeometry x="328" y="-593" width="104" height="30" as="geometry" />
        </mxCell>
        <mxCell id="KA5vXZ2nPaFK-a-9JE_G-82" style="edgeStyle=none;shape=connector;rounded=1;orthogonalLoop=1;jettySize=auto;html=1;labelBackgroundColor=none;fontFamily=Helvetica;fontSize=15;fontColor=default;endArrow=oval;endFill=0;strokeColor=#A8201A;exitX=0;exitY=1;exitDx=0;exitDy=0;entryX=0.503;entryY=1.377;entryDx=0;entryDy=0;entryPerimeter=0;exitPerimeter=0;" parent="1" source="9Mot5vRxFBjQDdBxqjVs-58" target="KA5vXZ2nPaFK-a-9JE_G-81" edge="1">
          <mxGeometry relative="1" as="geometry">
            <mxPoint x="407" y="-510" as="sourcePoint" />
            <mxPoint x="329" y="-550" as="targetPoint" />
          </mxGeometry>
        </mxCell>
        <mxCell id="KA5vXZ2nPaFK-a-9JE_G-83" style="edgeStyle=none;shape=connector;rounded=1;orthogonalLoop=1;jettySize=auto;html=1;entryX=0.835;entryY=1.051;entryDx=0;entryDy=0;entryPerimeter=0;labelBackgroundColor=none;fontFamily=Helvetica;fontSize=15;fontColor=default;endArrow=oval;endFill=0;strokeColor=#A8201A;" parent="1" target="KA5vXZ2nPaFK-a-9JE_G-87" edge="1">
          <mxGeometry relative="1" as="geometry">
            <mxPoint x="513" y="-614" as="sourcePoint" />
            <mxPoint x="380.15999999999985" y="-606.69" as="targetPoint" />
            <Array as="points" />
          </mxGeometry>
        </mxCell>
        <mxCell id="KA5vXZ2nPaFK-a-9JE_G-84" style="edgeStyle=none;shape=connector;rounded=1;orthogonalLoop=1;jettySize=auto;html=1;labelBackgroundColor=none;fontFamily=Helvetica;fontSize=15;fontColor=default;endArrow=oval;endFill=0;entryX=0.746;entryY=1.274;entryDx=0;entryDy=0;entryPerimeter=0;strokeColor=#A8201A;exitX=0;exitY=0.5;exitDx=0;exitDy=0;exitPerimeter=0;" parent="1" source="9Mot5vRxFBjQDdBxqjVs-58" target="KA5vXZ2nPaFK-a-9JE_G-86" edge="1">
          <mxGeometry relative="1" as="geometry">
            <mxPoint x="480" y="-667" as="sourcePoint" />
          </mxGeometry>
        </mxCell>
        <mxCell id="KA5vXZ2nPaFK-a-9JE_G-86" value="&lt;span style=&quot;font-size: 15px;&quot;&gt;DataOra_Inserimento&lt;/span&gt;" style="text;html=1;align=center;verticalAlign=middle;resizable=0;points=[];autosize=1;strokeColor=none;fillColor=none;fontSize=15;fontFamily=Helvetica;labelBackgroundColor=none;rounded=1;fontColor=#143642;" parent="1" vertex="1">
          <mxGeometry x="334.5" y="-670" width="170" height="30" as="geometry" />
        </mxCell>
        <mxCell id="KA5vXZ2nPaFK-a-9JE_G-87" value="&lt;span style=&quot;font-size: 15px;&quot;&gt;DataOra_Rilevazione&lt;/span&gt;" style="text;html=1;align=center;verticalAlign=middle;resizable=0;points=[];autosize=1;strokeColor=none;fillColor=none;fontSize=15;fontFamily=Helvetica;labelBackgroundColor=none;rounded=1;fontColor=#143642;" parent="1" vertex="1">
          <mxGeometry x="265" y="-630" width="170" height="30" as="geometry" />
        </mxCell>
        <mxCell id="KA5vXZ2nPaFK-a-9JE_G-89" value="&lt;span style=&quot;font-size: 15px;&quot;&gt;ID&lt;/span&gt;" style="text;html=1;align=center;verticalAlign=middle;resizable=0;points=[];autosize=1;strokeColor=none;fillColor=none;fontSize=15;fontFamily=Helvetica;labelBackgroundColor=none;rounded=1;fontColor=#143642;arcSize=0;" parent="1" vertex="1">
          <mxGeometry x="497" y="-685" width="33" height="30" as="geometry" />
        </mxCell>
        <mxCell id="KA5vXZ2nPaFK-a-9JE_G-92" value="&lt;span style=&quot;font-size: 15px;&quot;&gt;Tipo&lt;/span&gt;" style="text;html=1;align=center;verticalAlign=middle;resizable=0;points=[];autosize=1;strokeColor=none;fillColor=none;fontSize=15;fontFamily=Helvetica;labelBackgroundColor=none;rounded=1;fontColor=#143642;" parent="1" vertex="1">
          <mxGeometry x="530" y="-918.5" width="50" height="30" as="geometry" />
        </mxCell>
        <mxCell id="KA5vXZ2nPaFK-a-9JE_G-93" value="&lt;span style=&quot;font-size: 15px;&quot;&gt;ID&lt;/span&gt;" style="text;html=1;align=center;verticalAlign=middle;resizable=0;points=[];autosize=1;strokeColor=none;fillColor=none;fontSize=15;fontFamily=Helvetica;labelBackgroundColor=none;rounded=1;fontColor=#143642;" parent="1" vertex="1">
          <mxGeometry x="467" y="-859" width="40" height="30" as="geometry" />
        </mxCell>
        <mxCell id="KA5vXZ2nPaFK-a-9JE_G-94" value="&lt;span style=&quot;font-size: 15px;&quot;&gt;Acquisizione&lt;br&gt;&lt;/span&gt;" style="text;html=1;align=center;verticalAlign=middle;resizable=0;points=[];autosize=1;strokeColor=none;fillColor=none;fontSize=15;fontFamily=Helvetica;labelBackgroundColor=none;rounded=1;fontColor=#143642;" parent="1" vertex="1">
          <mxGeometry x="570" y="-914" width="110" height="30" as="geometry" />
        </mxCell>
        <mxCell id="KA5vXZ2nPaFK-a-9JE_G-95" style="edgeStyle=orthogonalEdgeStyle;rounded=0;orthogonalLoop=1;jettySize=auto;html=1;exitX=0;exitY=0.5;exitDx=0;exitDy=0;exitPerimeter=0;strokeColor=#A8201A;fontColor=#143642;fillColor=#FAE5C7;endArrow=oval;endFill=1;entryX=0.536;entryY=1;entryDx=0;entryDy=0;entryPerimeter=0;" parent="1" source="9Mot5vRxFBjQDdBxqjVs-103" target="KA5vXZ2nPaFK-a-9JE_G-93" edge="1">
          <mxGeometry relative="1" as="geometry">
            <mxPoint x="425.5" y="-779" as="sourcePoint" />
            <mxPoint x="490" y="-806" as="targetPoint" />
            <Array as="points">
              <mxPoint x="515" y="-830" />
              <mxPoint x="488" y="-829" />
            </Array>
          </mxGeometry>
        </mxCell>
        <mxCell id="KA5vXZ2nPaFK-a-9JE_G-96" style="edgeStyle=none;shape=connector;rounded=1;orthogonalLoop=1;jettySize=auto;html=1;entryX=0.384;entryY=1.002;entryDx=0;entryDy=0;entryPerimeter=0;labelBackgroundColor=none;fontFamily=Helvetica;fontSize=15;fontColor=default;endArrow=oval;endFill=0;strokeColor=#A8201A;exitX=0.25;exitY=0;exitDx=0;exitDy=0;exitPerimeter=0;" parent="1" source="9Mot5vRxFBjQDdBxqjVs-103" target="KA5vXZ2nPaFK-a-9JE_G-92" edge="1">
          <mxGeometry relative="1" as="geometry">
            <mxPoint x="524.5" y="-891" as="sourcePoint" />
            <mxPoint x="418.5" y="-875" as="targetPoint" />
            <Array as="points" />
          </mxGeometry>
        </mxCell>
        <mxCell id="KA5vXZ2nPaFK-a-9JE_G-97" style="edgeStyle=none;shape=connector;rounded=1;orthogonalLoop=1;jettySize=auto;html=1;labelBackgroundColor=none;fontFamily=Helvetica;fontSize=15;fontColor=default;endArrow=oval;endFill=0;strokeColor=#A8201A;exitX=0.75;exitY=0;exitDx=0;exitDy=0;exitPerimeter=0;" parent="1" source="9Mot5vRxFBjQDdBxqjVs-103" edge="1">
          <mxGeometry relative="1" as="geometry">
            <mxPoint x="560" y="-840" as="sourcePoint" />
            <mxPoint x="602" y="-884" as="targetPoint" />
            <Array as="points" />
          </mxGeometry>
        </mxCell>
        <mxCell id="KA5vXZ2nPaFK-a-9JE_G-98" value="&lt;span style=&quot;font-size: 15px;&quot;&gt;ID&lt;/span&gt;" style="text;html=1;align=center;verticalAlign=middle;resizable=0;points=[];autosize=1;strokeColor=none;fillColor=none;fontSize=15;fontFamily=Helvetica;labelBackgroundColor=none;rounded=1;fontColor=#143642;" parent="1" vertex="1">
          <mxGeometry x="1001.25" y="-1092" width="40" height="30" as="geometry" />
        </mxCell>
        <mxCell id="KA5vXZ2nPaFK-a-9JE_G-99" style="edgeStyle=none;shape=connector;rounded=1;orthogonalLoop=1;jettySize=auto;html=1;labelBackgroundColor=none;fontFamily=Helvetica;fontSize=15;fontColor=default;endArrow=oval;endFill=0;strokeColor=#A8201A;exitX=0.75;exitY=0;exitDx=0;exitDy=0;exitPerimeter=0;entryX=0.324;entryY=1.123;entryDx=0;entryDy=0;entryPerimeter=0;" parent="1" source="2ZxViYWchOxOmelXp1Hh-59" target="KA5vXZ2nPaFK-a-9JE_G-102" edge="1">
          <mxGeometry relative="1" as="geometry">
            <mxPoint x="1071" y="-1040" as="sourcePoint" />
            <mxPoint x="1072" y="-1060" as="targetPoint" />
            <Array as="points" />
          </mxGeometry>
        </mxCell>
        <mxCell id="KA5vXZ2nPaFK-a-9JE_G-102" value="&lt;span style=&quot;font-size: 15px;&quot;&gt;Tipo&lt;/span&gt;" style="text;html=1;align=center;verticalAlign=middle;resizable=0;points=[];autosize=1;strokeColor=none;fillColor=none;fontSize=15;fontFamily=Helvetica;labelBackgroundColor=none;rounded=1;fontColor=#143642;" parent="1" vertex="1">
          <mxGeometry x="1053" y="-1111" width="50" height="30" as="geometry" />
        </mxCell>
        <mxCell id="KA5vXZ2nPaFK-a-9JE_G-104" value="&lt;span style=&quot;font-size: 15px;&quot;&gt;ID&lt;/span&gt;" style="text;html=1;align=center;verticalAlign=middle;resizable=0;points=[];autosize=1;strokeColor=none;fillColor=none;fontSize=15;fontFamily=Helvetica;labelBackgroundColor=none;rounded=1;fontColor=#143642;arcSize=0;rotation=0;" parent="1" vertex="1">
          <mxGeometry x="974" y="-756.5" width="40" height="30" as="geometry" />
        </mxCell>
        <mxCell id="KA5vXZ2nPaFK-a-9JE_G-110" style="edgeStyle=none;shape=connector;rounded=1;orthogonalLoop=1;jettySize=auto;html=1;labelBackgroundColor=none;fontFamily=Helvetica;fontSize=15;fontColor=default;endArrow=oval;endFill=1;strokeColor=#A8201A;exitX=0.206;exitY=1.003;exitDx=0;exitDy=0;exitPerimeter=0;entryX=0.681;entryY=-0.107;entryDx=0;entryDy=0;entryPerimeter=0;" parent="1" source="Dx_CMPOLSW68eJcPcujk-12" target="KA5vXZ2nPaFK-a-9JE_G-104" edge="1">
          <mxGeometry relative="1" as="geometry">
            <mxPoint x="1001.25" y="-785" as="sourcePoint" />
            <mxPoint x="1001.25" y="-743" as="targetPoint" />
          </mxGeometry>
        </mxCell>
        <mxCell id="KA5vXZ2nPaFK-a-9JE_G-115" style="edgeStyle=none;shape=connector;rounded=1;orthogonalLoop=1;jettySize=auto;html=1;exitX=0.25;exitY=0;exitDx=0;exitDy=0;exitPerimeter=0;labelBackgroundColor=none;fontFamily=Helvetica;fontSize=15;fontColor=default;endArrow=oval;endFill=1;strokeColor=#A8201A;entryX=0.537;entryY=1.033;entryDx=0;entryDy=0;entryPerimeter=0;" parent="1" source="2ZxViYWchOxOmelXp1Hh-59" target="KA5vXZ2nPaFK-a-9JE_G-98" edge="1">
          <mxGeometry relative="1" as="geometry">
            <mxPoint x="697" y="-1262" as="sourcePoint" />
            <mxPoint x="741" y="-1266" as="targetPoint" />
          </mxGeometry>
        </mxCell>
        <mxCell id="KA5vXZ2nPaFK-a-9JE_G-133" style="edgeStyle=none;shape=connector;rounded=1;orthogonalLoop=1;jettySize=auto;html=1;labelBackgroundColor=none;fontFamily=Helvetica;fontSize=15;fontColor=default;endArrow=oval;endFill=0;strokeColor=#A8201A;entryX=0.627;entryY=-0.002;entryDx=0;entryDy=0;entryPerimeter=0;exitX=0.087;exitY=1.028;exitDx=0;exitDy=0;exitPerimeter=0;" parent="1" target="KA5vXZ2nPaFK-a-9JE_G-135" edge="1" source="Dx_CMPOLSW68eJcPcujk-12">
          <mxGeometry relative="1" as="geometry">
            <mxPoint x="968" y="-828" as="sourcePoint" />
            <mxPoint x="976" y="-863" as="targetPoint" />
          </mxGeometry>
        </mxCell>
        <mxCell id="KA5vXZ2nPaFK-a-9JE_G-134" style="edgeStyle=none;shape=connector;rounded=1;orthogonalLoop=1;jettySize=auto;html=1;labelBackgroundColor=none;fontFamily=Helvetica;fontSize=15;fontColor=default;endArrow=oval;endFill=0;strokeColor=#A8201A;exitX=0.324;exitY=-0.004;exitDx=0;exitDy=0;exitPerimeter=0;entryX=0.508;entryY=1.127;entryDx=0;entryDy=0;entryPerimeter=0;" parent="1" source="Dx_CMPOLSW68eJcPcujk-12" target="KA5vXZ2nPaFK-a-9JE_G-136" edge="1">
          <mxGeometry relative="1" as="geometry">
            <mxPoint x="1013.25" y="-833" as="sourcePoint" />
            <mxPoint x="1001.25" y="-869" as="targetPoint" />
          </mxGeometry>
        </mxCell>
        <mxCell id="KA5vXZ2nPaFK-a-9JE_G-135" value="&lt;span style=&quot;font-size: 15px;&quot;&gt;Scopo&lt;br&gt;&lt;/span&gt;" style="text;html=1;align=center;verticalAlign=middle;resizable=0;points=[];autosize=1;strokeColor=none;fillColor=none;fontSize=15;fontFamily=Helvetica;labelBackgroundColor=none;rounded=1;fontColor=#143642;arcSize=0;rotation=0;" parent="1" vertex="1">
          <mxGeometry x="920.75" y="-739" width="61" height="30" as="geometry" />
        </mxCell>
        <mxCell id="KA5vXZ2nPaFK-a-9JE_G-136" value="&lt;span style=&quot;font-size: 15px;&quot;&gt;Mezz&#39;Ombra&lt;br&gt;&lt;/span&gt;" style="text;html=1;align=center;verticalAlign=middle;resizable=0;points=[];autosize=1;strokeColor=none;fillColor=none;fontSize=15;fontFamily=Helvetica;labelBackgroundColor=none;rounded=1;fontColor=#143642;arcSize=0;rotation=0;" parent="1" vertex="1">
          <mxGeometry x="949" y="-907" width="103" height="30" as="geometry" />
        </mxCell>
        <mxCell id="KA5vXZ2nPaFK-a-9JE_G-137" value="Data_Messa_A_Dimora" style="text;html=1;align=center;verticalAlign=middle;resizable=0;points=[];autosize=1;strokeColor=none;fillColor=none;fontSize=15;fontFamily=Helvetica;labelBackgroundColor=none;rounded=1;fontColor=#143642;" parent="1" vertex="1">
          <mxGeometry x="1048" y="-773" width="177" height="30" as="geometry" />
        </mxCell>
        <mxCell id="KA5vXZ2nPaFK-a-9JE_G-138" style="edgeStyle=none;shape=connector;rounded=1;orthogonalLoop=1;jettySize=auto;html=1;labelBackgroundColor=none;fontFamily=Helvetica;fontSize=15;fontColor=default;endArrow=oval;endFill=0;strokeColor=#A8201A;entryX=0.39;entryY=0.11;entryDx=0;entryDy=0;entryPerimeter=0;" parent="1" target="KA5vXZ2nPaFK-a-9JE_G-137" edge="1">
          <mxGeometry relative="1" as="geometry">
            <mxPoint x="1060" y="-789" as="sourcePoint" />
            <mxPoint x="1319" y="-749" as="targetPoint" />
            <Array as="points" />
          </mxGeometry>
        </mxCell>
        <mxCell id="KA5vXZ2nPaFK-a-9JE_G-139" style="edgeStyle=none;shape=connector;rounded=1;orthogonalLoop=1;jettySize=auto;html=1;labelBackgroundColor=none;fontFamily=Helvetica;fontSize=15;fontColor=default;endArrow=oval;endFill=0;strokeColor=#A8201A;entryX=0.038;entryY=0.251;entryDx=0;entryDy=0;entryPerimeter=0;" parent="1" target="KA5vXZ2nPaFK-a-9JE_G-140" edge="1">
          <mxGeometry relative="1" as="geometry">
            <mxPoint x="1126" y="-792" as="sourcePoint" />
            <mxPoint x="1161" y="-789" as="targetPoint" />
            <Array as="points" />
          </mxGeometry>
        </mxCell>
        <mxCell id="KA5vXZ2nPaFK-a-9JE_G-140" value="Nome_Comune" style="text;html=1;align=center;verticalAlign=middle;resizable=0;points=[];autosize=1;strokeColor=none;fillColor=none;fontSize=15;fontFamily=Helvetica;labelBackgroundColor=none;rounded=1;fontColor=#143642;" parent="1" vertex="1">
          <mxGeometry x="1160" y="-803" width="123" height="30" as="geometry" />
        </mxCell>
        <mxCell id="KA5vXZ2nPaFK-a-9JE_G-142" style="edgeStyle=none;shape=connector;rounded=1;orthogonalLoop=1;jettySize=auto;html=1;labelBackgroundColor=none;fontFamily=Helvetica;fontSize=15;fontColor=default;endArrow=oval;endFill=1;strokeColor=#A8201A;exitX=0.117;exitY=1.006;exitDx=0;exitDy=0;exitPerimeter=0;entryX=0.679;entryY=-0.143;entryDx=0;entryDy=0;entryPerimeter=0;" parent="1" source="2ZxViYWchOxOmelXp1Hh-42" target="KA5vXZ2nPaFK-a-9JE_G-143" edge="1">
          <mxGeometry relative="1" as="geometry">
            <mxPoint x="1160" y="-625" as="sourcePoint" />
            <mxPoint x="1156" y="-596" as="targetPoint" />
          </mxGeometry>
        </mxCell>
        <mxCell id="KA5vXZ2nPaFK-a-9JE_G-143" value="&lt;span style=&quot;font-size: 15px;&quot;&gt;Nome_Scientifico&lt;/span&gt;" style="text;html=1;align=center;verticalAlign=middle;resizable=0;points=[];autosize=1;strokeColor=none;fillColor=none;fontSize=15;fontFamily=Helvetica;labelBackgroundColor=none;rounded=1;fontColor=#143642;arcSize=0;rotation=0;" parent="1" vertex="1">
          <mxGeometry x="1065.25" y="-587" width="135" height="30" as="geometry" />
        </mxCell>
        <mxCell id="KA5vXZ2nPaFK-a-9JE_G-144" style="edgeStyle=none;shape=connector;rounded=1;orthogonalLoop=1;jettySize=auto;html=1;labelBackgroundColor=none;fontFamily=Helvetica;fontSize=15;fontColor=default;endArrow=oval;endFill=0;strokeColor=#A8201A;entryX=0.463;entryY=-0.027;entryDx=0;entryDy=0;entryPerimeter=0;exitX=0.68;exitY=0.988;exitDx=0;exitDy=0;exitPerimeter=0;" parent="1" source="2ZxViYWchOxOmelXp1Hh-42" target="KA5vXZ2nPaFK-a-9JE_G-145" edge="1">
          <mxGeometry relative="1" as="geometry">
            <mxPoint x="1273" y="-626" as="sourcePoint" />
            <mxPoint x="1274" y="-583" as="targetPoint" />
            <Array as="points" />
          </mxGeometry>
        </mxCell>
        <mxCell id="KA5vXZ2nPaFK-a-9JE_G-145" value="&lt;span style=&quot;font-size: 15px;&quot;&gt;Substrato&lt;br&gt;&lt;/span&gt;" style="text;html=1;align=center;verticalAlign=middle;resizable=0;points=[];autosize=1;strokeColor=none;fillColor=none;fontSize=15;fontFamily=Helvetica;labelBackgroundColor=none;rounded=1;fontColor=#143642;arcSize=0;rotation=0;" parent="1" vertex="1">
          <mxGeometry x="1211" y="-604" width="82" height="30" as="geometry" />
        </mxCell>
        <mxCell id="KA5vXZ2nPaFK-a-9JE_G-151" style="edgeStyle=none;shape=connector;rounded=1;orthogonalLoop=1;jettySize=auto;html=1;labelBackgroundColor=none;fontFamily=Helvetica;fontSize=15;fontColor=default;endArrow=oval;endFill=0;entryX=0.076;entryY=0.475;entryDx=0;entryDy=0;entryPerimeter=0;strokeColor=#A8201A;exitX=1;exitY=0.5;exitDx=0;exitDy=0;exitPerimeter=0;" parent="1" source="IGpdcPXpx3QODBAOmaDT-103" target="KA5vXZ2nPaFK-a-9JE_G-161" edge="1">
          <mxGeometry relative="1" as="geometry">
            <mxPoint x="1952" y="-733" as="sourcePoint" />
            <mxPoint x="2006" y="-792" as="targetPoint" />
          </mxGeometry>
        </mxCell>
        <mxCell id="KA5vXZ2nPaFK-a-9JE_G-152" style="edgeStyle=none;shape=connector;rounded=1;orthogonalLoop=1;jettySize=auto;html=1;exitX=1;exitY=0.75;exitDx=0;exitDy=0;exitPerimeter=0;labelBackgroundColor=none;fontFamily=Helvetica;fontSize=15;fontColor=default;endArrow=oval;endFill=0;entryX=0.002;entryY=0.459;entryDx=0;entryDy=0;entryPerimeter=0;strokeColor=#A8201A;" parent="1" source="IGpdcPXpx3QODBAOmaDT-103" target="KA5vXZ2nPaFK-a-9JE_G-155" edge="1">
          <mxGeometry relative="1" as="geometry">
            <mxPoint x="2040" y="-794" as="targetPoint" />
          </mxGeometry>
        </mxCell>
        <mxCell id="KA5vXZ2nPaFK-a-9JE_G-153" style="edgeStyle=none;shape=connector;rounded=1;orthogonalLoop=1;jettySize=auto;html=1;labelBackgroundColor=none;fontFamily=Helvetica;fontSize=15;fontColor=default;endArrow=oval;endFill=0;entryX=-0.023;entryY=0.498;entryDx=0;entryDy=0;entryPerimeter=0;strokeColor=#A8201A;" parent="1" target="KA5vXZ2nPaFK-a-9JE_G-158" edge="1">
          <mxGeometry relative="1" as="geometry">
            <mxPoint x="1831" y="-670" as="sourcePoint" />
            <mxPoint x="1996" y="-824" as="targetPoint" />
          </mxGeometry>
        </mxCell>
        <mxCell id="KA5vXZ2nPaFK-a-9JE_G-154" value="Collocazione" style="text;html=1;align=center;verticalAlign=middle;resizable=0;points=[];autosize=1;strokeColor=none;fillColor=none;fontSize=15;fontFamily=Helvetica;labelBackgroundColor=none;rounded=1;fontColor=#143642;" parent="1" vertex="1">
          <mxGeometry x="1779.75" y="-793" width="110" height="30" as="geometry" />
        </mxCell>
        <mxCell id="KA5vXZ2nPaFK-a-9JE_G-155" value="Coodinate_GPS" style="text;html=1;align=center;verticalAlign=middle;resizable=0;points=[];autosize=1;strokeColor=none;fillColor=none;fontSize=15;fontFamily=Helvetica;labelBackgroundColor=none;rounded=1;fontColor=#143642;" parent="1" vertex="1">
          <mxGeometry x="1938" y="-626" width="130" height="30" as="geometry" />
        </mxCell>
        <mxCell id="KA5vXZ2nPaFK-a-9JE_G-156" value="Superficie_mq" style="text;html=1;align=center;verticalAlign=middle;resizable=0;points=[];autosize=1;strokeColor=none;fillColor=none;fontSize=15;fontFamily=Helvetica;labelBackgroundColor=none;rounded=1;fontColor=#143642;" parent="1" vertex="1">
          <mxGeometry x="1806" y="-763" width="120" height="30" as="geometry" />
        </mxCell>
        <mxCell id="KA5vXZ2nPaFK-a-9JE_G-158" value="Condizione_Ambientale" style="text;html=1;align=center;verticalAlign=middle;resizable=0;points=[];autosize=1;strokeColor=none;fillColor=none;fontSize=15;fontFamily=Helvetica;labelBackgroundColor=none;rounded=1;fontColor=#143642;" parent="1" vertex="1">
          <mxGeometry x="1835" y="-720" width="180" height="30" as="geometry" />
        </mxCell>
        <mxCell id="KA5vXZ2nPaFK-a-9JE_G-159" style="edgeStyle=none;rounded=1;orthogonalLoop=1;jettySize=auto;html=1;endArrow=oval;endFill=1;labelBackgroundColor=none;fontFamily=Helvetica;fontSize=15;fontColor=default;shape=connector;strokeColor=#A8201A;" parent="1" edge="1">
          <mxGeometry relative="1" as="geometry">
            <mxPoint x="1911" y="-670.95" as="targetPoint" />
            <mxPoint x="1905" y="-608" as="sourcePoint" />
          </mxGeometry>
        </mxCell>
        <mxCell id="KA5vXZ2nPaFK-a-9JE_G-160" style="edgeStyle=none;shape=connector;rounded=1;orthogonalLoop=1;jettySize=auto;html=1;exitX=0.663;exitY=-0.042;exitDx=0;exitDy=0;exitPerimeter=0;labelBackgroundColor=none;fontFamily=Helvetica;fontSize=15;fontColor=default;endArrow=oval;endFill=0;entryX=0.042;entryY=0.911;entryDx=0;entryDy=0;entryPerimeter=0;strokeColor=#A8201A;" parent="1" source="IGpdcPXpx3QODBAOmaDT-103" target="KA5vXZ2nPaFK-a-9JE_G-156" edge="1">
          <mxGeometry relative="1" as="geometry">
            <mxPoint x="1942" y="-793" as="sourcePoint" />
            <mxPoint x="1996" y="-804" as="targetPoint" />
          </mxGeometry>
        </mxCell>
        <mxCell id="KA5vXZ2nPaFK-a-9JE_G-161" value="Nome" style="text;html=1;align=center;verticalAlign=middle;resizable=0;points=[];autosize=1;strokeColor=none;fillColor=none;fontSize=15;fontFamily=Helvetica;labelBackgroundColor=none;rounded=1;fontColor=#143642;" parent="1" vertex="1">
          <mxGeometry x="1952" y="-660" width="60" height="30" as="geometry" />
        </mxCell>
        <mxCell id="KA5vXZ2nPaFK-a-9JE_G-162" style="edgeStyle=none;shape=connector;rounded=1;orthogonalLoop=1;jettySize=auto;html=1;exitX=0.87;exitY=0.025;exitDx=0;exitDy=0;exitPerimeter=0;labelBackgroundColor=none;fontFamily=Helvetica;fontSize=15;fontColor=default;endArrow=oval;endFill=0;strokeColor=#A8201A;entryX=0.279;entryY=1.068;entryDx=0;entryDy=0;entryPerimeter=0;" parent="1" source="IGpdcPXpx3QODBAOmaDT-8" target="KA5vXZ2nPaFK-a-9JE_G-68" edge="1">
          <mxGeometry relative="1" as="geometry">
            <mxPoint x="1865" y="-532" as="sourcePoint" />
            <mxPoint x="1842" y="-468" as="targetPoint" />
          </mxGeometry>
        </mxCell>
        <mxCell id="KA5vXZ2nPaFK-a-9JE_G-163" style="edgeStyle=none;shape=connector;rounded=1;orthogonalLoop=1;jettySize=auto;html=1;exitX=1;exitY=0.5;exitDx=0;exitDy=0;exitPerimeter=0;labelBackgroundColor=none;fontFamily=Helvetica;fontSize=15;fontColor=default;endArrow=oval;endFill=0;entryX=-0.019;entryY=0.495;entryDx=0;entryDy=0;entryPerimeter=0;strokeColor=#A8201A;" parent="1" source="IGpdcPXpx3QODBAOmaDT-8" target="KA5vXZ2nPaFK-a-9JE_G-63" edge="1">
          <mxGeometry relative="1" as="geometry">
            <mxPoint x="1856" y="-427" as="sourcePoint" />
            <mxPoint x="1862" y="-462" as="targetPoint" />
          </mxGeometry>
        </mxCell>
        <mxCell id="KA5vXZ2nPaFK-a-9JE_G-164" style="edgeStyle=none;shape=connector;rounded=1;orthogonalLoop=1;jettySize=auto;html=1;exitX=1;exitY=0.75;exitDx=0;exitDy=0;exitPerimeter=0;labelBackgroundColor=none;fontFamily=Helvetica;fontSize=15;fontColor=default;endArrow=oval;endFill=0;entryX=0.016;entryY=0.51;entryDx=0;entryDy=0;entryPerimeter=0;strokeColor=#A8201A;" parent="1" source="IGpdcPXpx3QODBAOmaDT-8" target="KA5vXZ2nPaFK-a-9JE_G-65" edge="1">
          <mxGeometry relative="1" as="geometry">
            <mxPoint x="1880" y="-408" as="sourcePoint" />
            <mxPoint x="1985" y="-404" as="targetPoint" />
          </mxGeometry>
        </mxCell>
        <mxCell id="KA5vXZ2nPaFK-a-9JE_G-165" style="edgeStyle=none;shape=connector;rounded=1;orthogonalLoop=1;jettySize=auto;html=1;labelBackgroundColor=none;fontFamily=Helvetica;fontSize=15;fontColor=default;endArrow=oval;endFill=0;entryX=0.432;entryY=0.052;entryDx=0;entryDy=0;entryPerimeter=0;strokeColor=#A8201A;" parent="1" target="KA5vXZ2nPaFK-a-9JE_G-67" edge="1">
          <mxGeometry relative="1" as="geometry">
            <mxPoint x="1861" y="-403" as="sourcePoint" />
            <mxPoint x="1926" y="-377" as="targetPoint" />
          </mxGeometry>
        </mxCell>
        <mxCell id="KA5vXZ2nPaFK-a-9JE_G-167" style="edgeStyle=none;rounded=1;orthogonalLoop=1;jettySize=auto;html=1;endArrow=oval;endFill=1;labelBackgroundColor=none;fontFamily=Helvetica;fontSize=15;fontColor=default;shape=connector;strokeColor=#A8201A;entryX=0.001;entryY=0.552;entryDx=0;entryDy=0;entryPerimeter=0;exitX=0.816;exitY=1.015;exitDx=0;exitDy=0;exitPerimeter=0;" parent="1" source="IGpdcPXpx3QODBAOmaDT-8" target="KA5vXZ2nPaFK-a-9JE_G-64" edge="1">
          <mxGeometry relative="1" as="geometry">
            <mxPoint x="1928" y="-566" as="targetPoint" />
            <mxPoint x="1854" y="-436" as="sourcePoint" />
          </mxGeometry>
        </mxCell>
        <mxCell id="KA5vXZ2nPaFK-a-9JE_G-168" style="edgeStyle=none;shape=connector;rounded=1;orthogonalLoop=1;jettySize=auto;html=1;labelBackgroundColor=none;fontFamily=Helvetica;fontSize=15;fontColor=default;endArrow=oval;endFill=0;strokeColor=#A8201A;entryX=0.002;entryY=0.44;entryDx=0;entryDy=0;entryPerimeter=0;" parent="1" target="KA5vXZ2nPaFK-a-9JE_G-169" edge="1">
          <mxGeometry relative="1" as="geometry">
            <mxPoint x="1861" y="-437" as="sourcePoint" />
            <mxPoint x="1923" y="-451" as="targetPoint" />
          </mxGeometry>
        </mxCell>
        <mxCell id="KA5vXZ2nPaFK-a-9JE_G-169" value="Provincia" style="text;html=1;align=center;verticalAlign=middle;resizable=0;points=[];autosize=1;strokeColor=none;fillColor=none;fontSize=15;fontFamily=Helvetica;labelBackgroundColor=none;rounded=1;fontColor=#143642;" parent="1" vertex="1">
          <mxGeometry x="1860" y="-484" width="80" height="30" as="geometry" />
        </mxCell>
        <mxCell id="KA5vXZ2nPaFK-a-9JE_G-170" style="edgeStyle=none;shape=connector;rounded=1;orthogonalLoop=1;jettySize=auto;html=1;labelBackgroundColor=none;fontFamily=Helvetica;fontSize=15;fontColor=default;endArrow=oval;endFill=0;strokeColor=#A8201A;entryX=-0.008;entryY=0.581;entryDx=0;entryDy=0;entryPerimeter=0;" parent="1" target="KA5vXZ2nPaFK-a-9JE_G-171" edge="1">
          <mxGeometry relative="1" as="geometry">
            <mxPoint x="1868" y="-434" as="sourcePoint" />
            <mxPoint x="1910" y="-450" as="targetPoint" />
          </mxGeometry>
        </mxCell>
        <mxCell id="KA5vXZ2nPaFK-a-9JE_G-171" value="Comune" style="text;html=1;align=center;verticalAlign=middle;resizable=0;points=[];autosize=1;strokeColor=none;fillColor=none;fontSize=15;fontFamily=Helvetica;labelBackgroundColor=none;rounded=1;fontColor=#143642;" parent="1" vertex="1">
          <mxGeometry x="1919" y="-468" width="75" height="30" as="geometry" />
        </mxCell>
        <mxCell id="KA5vXZ2nPaFK-a-9JE_G-172" style="edgeStyle=none;shape=connector;rounded=1;orthogonalLoop=1;jettySize=auto;html=1;exitX=0.554;exitY=-0.004;exitDx=0;exitDy=0;exitPerimeter=0;labelBackgroundColor=none;fontFamily=Helvetica;fontSize=15;fontColor=default;endArrow=oval;endFill=0;entryX=0.153;entryY=0.971;entryDx=0;entryDy=0;entryPerimeter=0;strokeColor=#A8201A;" parent="1" source="IGpdcPXpx3QODBAOmaDT-103" target="KA5vXZ2nPaFK-a-9JE_G-154" edge="1">
          <mxGeometry relative="1" as="geometry">
            <mxPoint x="1819" y="-662" as="sourcePoint" />
            <mxPoint x="1821" y="-726" as="targetPoint" />
          </mxGeometry>
        </mxCell>
        <mxCell id="KA5vXZ2nPaFK-a-9JE_G-173" style="edgeStyle=none;rounded=1;orthogonalLoop=1;jettySize=auto;html=1;endArrow=oval;endFill=1;labelBackgroundColor=none;fontFamily=Helvetica;fontSize=15;fontColor=default;shape=connector;strokeColor=#A8201A;" parent="1" edge="1">
          <mxGeometry relative="1" as="geometry">
            <mxPoint x="1922" y="-120" as="targetPoint" />
            <mxPoint x="1893" y="-370" as="sourcePoint" />
          </mxGeometry>
        </mxCell>
        <mxCell id="KA5vXZ2nPaFK-a-9JE_G-174" style="edgeStyle=none;shape=connector;rounded=1;orthogonalLoop=1;jettySize=auto;html=1;labelBackgroundColor=none;fontFamily=Helvetica;fontSize=15;fontColor=default;endArrow=oval;endFill=0;entryX=0.495;entryY=1.088;entryDx=0;entryDy=0;entryPerimeter=0;exitX=0.5;exitY=0;exitDx=0;exitDy=0;exitPerimeter=0;strokeColor=#A8201A;" parent="1" source="IGpdcPXpx3QODBAOmaDT-12" target="KA5vXZ2nPaFK-a-9JE_G-178" edge="1">
          <mxGeometry relative="1" as="geometry">
            <mxPoint x="980.5" y="-588" as="sourcePoint" />
            <mxPoint x="980.0799999999999" y="-572.03" as="targetPoint" />
          </mxGeometry>
        </mxCell>
        <mxCell id="KA5vXZ2nPaFK-a-9JE_G-175" style="edgeStyle=none;shape=connector;rounded=1;orthogonalLoop=1;jettySize=auto;html=1;exitX=0.95;exitY=0;exitDx=0;exitDy=0;exitPerimeter=0;labelBackgroundColor=none;fontFamily=Helvetica;fontSize=15;fontColor=default;endArrow=oval;endFill=0;strokeColor=#A8201A;" parent="1" source="IGpdcPXpx3QODBAOmaDT-12" target="KA5vXZ2nPaFK-a-9JE_G-179" edge="1">
          <mxGeometry relative="1" as="geometry">
            <mxPoint x="1011.9000000000001" y="-587.8800000000001" as="sourcePoint" />
            <mxPoint x="1012.7" y="-551.31" as="targetPoint" />
          </mxGeometry>
        </mxCell>
        <mxCell id="KA5vXZ2nPaFK-a-9JE_G-176" style="edgeStyle=none;shape=connector;rounded=1;orthogonalLoop=1;jettySize=auto;html=1;labelBackgroundColor=none;fontFamily=Helvetica;fontSize=15;fontColor=default;endArrow=oval;endFill=0;strokeColor=#A8201A;" parent="1" target="KA5vXZ2nPaFK-a-9JE_G-181" edge="1">
          <mxGeometry relative="1" as="geometry">
            <mxPoint x="910" y="-439" as="sourcePoint" />
          </mxGeometry>
        </mxCell>
        <mxCell id="KA5vXZ2nPaFK-a-9JE_G-178" value="Nome" style="text;html=1;align=center;verticalAlign=middle;resizable=0;points=[];autosize=1;strokeColor=none;fillColor=none;fontSize=15;fontFamily=Helvetica;labelBackgroundColor=none;rounded=1;fontColor=#143642;" parent="1" vertex="1">
          <mxGeometry x="921.75" y="-498" width="60" height="30" as="geometry" />
        </mxCell>
        <mxCell id="KA5vXZ2nPaFK-a-9JE_G-179" value="Cognome" style="text;html=1;align=center;verticalAlign=middle;resizable=0;points=[];autosize=1;strokeColor=none;fillColor=none;fontSize=15;fontFamily=Helvetica;labelBackgroundColor=none;rounded=1;fontColor=#143642;" parent="1" vertex="1">
          <mxGeometry x="991" y="-480" width="90" height="30" as="geometry" />
        </mxCell>
        <mxCell id="KA5vXZ2nPaFK-a-9JE_G-181" value="Telefono" style="text;html=1;align=center;verticalAlign=middle;resizable=0;points=[];autosize=1;strokeColor=none;fillColor=none;fontSize=15;fontFamily=Helvetica;labelBackgroundColor=none;rounded=1;fontColor=#143642;" parent="1" vertex="1">
          <mxGeometry x="852" y="-510" width="80" height="30" as="geometry" />
        </mxCell>
        <mxCell id="KA5vXZ2nPaFK-a-9JE_G-182" value="0,1" style="text;html=1;align=center;verticalAlign=middle;resizable=0;points=[];autosize=1;strokeColor=none;fillColor=none;fontSize=15;fontFamily=Helvetica;rounded=1;labelBackgroundColor=none;fontColor=#143642;" parent="1" vertex="1">
          <mxGeometry x="898" y="-472" width="40" height="30" as="geometry" />
        </mxCell>
        <mxCell id="KA5vXZ2nPaFK-a-9JE_G-186" value="Email" style="text;html=1;align=center;verticalAlign=middle;resizable=0;points=[];autosize=1;strokeColor=none;fillColor=none;fontSize=15;fontFamily=Helvetica;labelBackgroundColor=none;rounded=1;fontColor=#143642;" parent="1" vertex="1">
          <mxGeometry x="977" y="-510" width="56" height="30" as="geometry" />
        </mxCell>
        <mxCell id="KA5vXZ2nPaFK-a-9JE_G-187" style="edgeStyle=none;shape=connector;rounded=1;orthogonalLoop=1;jettySize=auto;html=1;labelBackgroundColor=none;fontFamily=Helvetica;fontSize=15;fontColor=default;endArrow=oval;endFill=1;strokeColor=#A8201A;entryX=0.368;entryY=1.01;entryDx=0;entryDy=0;entryPerimeter=0;" parent="1" target="KA5vXZ2nPaFK-a-9JE_G-186" edge="1">
          <mxGeometry relative="1" as="geometry">
            <mxPoint x="961" y="-437" as="sourcePoint" />
            <mxPoint x="1167" y="-620" as="targetPoint" />
          </mxGeometry>
        </mxCell>
        <mxCell id="KA5vXZ2nPaFK-a-9JE_G-188" value="0,1" style="text;html=1;align=center;verticalAlign=middle;resizable=0;points=[];autosize=1;strokeColor=none;fillColor=none;fontSize=15;fontFamily=Helvetica;rounded=1;labelBackgroundColor=none;fontColor=#143642;" parent="1" vertex="1">
          <mxGeometry x="1323" y="-396" width="40" height="30" as="geometry" />
        </mxCell>
        <mxCell id="KA5vXZ2nPaFK-a-9JE_G-191" style="edgeStyle=orthogonalEdgeStyle;rounded=1;orthogonalLoop=1;jettySize=auto;html=1;exitX=1;exitY=1;exitDx=0;exitDy=0;exitPerimeter=0;endArrow=oval;endFill=0;labelBackgroundColor=none;fontColor=default;strokeColor=#A8201A;" parent="1" source="2ZxViYWchOxOmelXp1Hh-18" target="KA5vXZ2nPaFK-a-9JE_G-196" edge="1">
          <mxGeometry relative="1" as="geometry">
            <mxPoint x="1351" y="-238" as="sourcePoint" />
            <mxPoint x="1352.0500000000002" y="-266.47000000000025" as="targetPoint" />
            <Array as="points">
              <mxPoint x="1382" y="-368" />
              <mxPoint x="1382" y="-368" />
            </Array>
          </mxGeometry>
        </mxCell>
        <mxCell id="KA5vXZ2nPaFK-a-9JE_G-193" value="Finanziamento" style="text;html=1;align=center;verticalAlign=middle;resizable=0;points=[];autosize=1;strokeColor=none;fillColor=none;fontSize=14;labelBackgroundColor=none;rounded=1;fontColor=#143642;" parent="1" vertex="1">
          <mxGeometry x="1268" y="-328" width="110" height="29" as="geometry" />
        </mxCell>
        <mxCell id="KA5vXZ2nPaFK-a-9JE_G-194" value="ID" style="text;html=1;align=center;verticalAlign=middle;resizable=0;points=[];autosize=1;strokeColor=none;fillColor=none;fontSize=14;labelBackgroundColor=none;rounded=1;fontColor=#143642;" parent="1" vertex="1">
          <mxGeometry x="1241.5" y="-372" width="40" height="30" as="geometry" />
        </mxCell>
        <mxCell id="KA5vXZ2nPaFK-a-9JE_G-196" value="Nome" style="text;html=1;align=center;verticalAlign=middle;resizable=0;points=[];autosize=1;strokeColor=none;fillColor=none;fontSize=14;labelBackgroundColor=none;rounded=1;fontColor=#143642;" parent="1" vertex="1">
          <mxGeometry x="1357" y="-354" width="60" height="30" as="geometry" />
        </mxCell>
        <mxCell id="KA5vXZ2nPaFK-a-9JE_G-199" style="edgeStyle=none;shape=connector;rounded=1;orthogonalLoop=1;jettySize=auto;html=1;labelBackgroundColor=none;fontFamily=Helvetica;fontSize=15;fontColor=default;endArrow=oval;endFill=0;entryX=0.532;entryY=-0.107;entryDx=0;entryDy=0;entryPerimeter=0;strokeColor=#A8201A;exitX=0.579;exitY=1.025;exitDx=0;exitDy=0;exitPerimeter=0;" parent="1" edge="1">
          <mxGeometry relative="1" as="geometry">
            <mxPoint x="1325.5595000000003" y="-397.0000000000002" as="sourcePoint" />
            <mxPoint x="1325.52" y="-331.10299999999984" as="targetPoint" />
          </mxGeometry>
        </mxCell>
        <mxCell id="KA5vXZ2nPaFK-a-9JE_G-201" style="edgeStyle=none;shape=connector;rounded=1;orthogonalLoop=1;jettySize=auto;html=1;labelBackgroundColor=none;fontFamily=Helvetica;fontSize=15;fontColor=default;endArrow=oval;endFill=1;strokeColor=#A8201A;entryX=0.625;entryY=0.059;entryDx=0;entryDy=0;entryPerimeter=0;exitX=0.111;exitY=0.996;exitDx=0;exitDy=0;exitPerimeter=0;" parent="1" source="2ZxViYWchOxOmelXp1Hh-18" target="KA5vXZ2nPaFK-a-9JE_G-194" edge="1">
          <mxGeometry relative="1" as="geometry">
            <mxPoint x="990" y="-350" as="sourcePoint" />
            <mxPoint x="1027" y="-393" as="targetPoint" />
          </mxGeometry>
        </mxCell>
        <mxCell id="KA5vXZ2nPaFK-a-9JE_G-202" value="0,1" style="text;html=1;align=center;verticalAlign=middle;resizable=0;points=[];autosize=1;strokeColor=none;fillColor=none;fontSize=15;fontFamily=Helvetica;rounded=1;labelBackgroundColor=none;fontColor=#143642;" parent="1" vertex="1">
          <mxGeometry x="905" y="-394" width="40" height="30" as="geometry" />
        </mxCell>
        <mxCell id="KA5vXZ2nPaFK-a-9JE_G-203" value="0,N" style="text;html=1;align=center;verticalAlign=middle;resizable=0;points=[];autosize=1;strokeColor=none;fillColor=none;fontSize=15;fontFamily=Helvetica;rounded=1;labelBackgroundColor=none;fontColor=#143642;" parent="1" vertex="1">
          <mxGeometry x="1001" y="-443" width="41" height="30" as="geometry" />
        </mxCell>
        <mxCell id="KA5vXZ2nPaFK-a-9JE_G-204" value="0,N" style="text;html=1;align=center;verticalAlign=middle;resizable=0;points=[];autosize=1;strokeColor=none;fillColor=none;fontSize=15;fontFamily=Helvetica;rounded=1;labelBackgroundColor=none;fontColor=#143642;" parent="1" vertex="1">
          <mxGeometry x="843" y="-441" width="41" height="30" as="geometry" />
        </mxCell>
        <mxCell id="KA5vXZ2nPaFK-a-9JE_G-205" value="1,N" style="text;html=1;align=center;verticalAlign=middle;resizable=0;points=[];autosize=1;strokeColor=none;fillColor=none;fontSize=15;fontFamily=Helvetica;rounded=1;labelBackgroundColor=none;fontColor=#143642;" parent="1" vertex="1">
          <mxGeometry x="1642" y="-448" width="41" height="30" as="geometry" />
        </mxCell>
        <mxCell id="KA5vXZ2nPaFK-a-9JE_G-206" value="1,N" style="text;html=1;align=center;verticalAlign=middle;resizable=0;points=[];autosize=1;strokeColor=none;fillColor=none;fontSize=15;fontFamily=Helvetica;rounded=1;labelBackgroundColor=none;fontColor=#143642;" parent="1" vertex="1">
          <mxGeometry x="1691" y="-385" width="41" height="30" as="geometry" />
        </mxCell>
        <mxCell id="KA5vXZ2nPaFK-a-9JE_G-207" value="1,N" style="text;html=1;align=center;verticalAlign=middle;resizable=0;points=[];autosize=1;strokeColor=none;fillColor=none;fontSize=15;fontFamily=Helvetica;rounded=1;labelBackgroundColor=none;fontColor=#143642;" parent="1" vertex="1">
          <mxGeometry x="1698" y="-475" width="41" height="30" as="geometry" />
        </mxCell>
        <mxCell id="KA5vXZ2nPaFK-a-9JE_G-208" value="1,N" style="text;html=1;align=center;verticalAlign=middle;resizable=0;points=[];autosize=1;strokeColor=none;fillColor=none;fontSize=15;fontFamily=Helvetica;rounded=1;labelBackgroundColor=none;fontColor=#143642;" parent="1" vertex="1">
          <mxGeometry x="1792.5" y="-475" width="41" height="30" as="geometry" />
        </mxCell>
        <mxCell id="KA5vXZ2nPaFK-a-9JE_G-209" value="1,N" style="text;html=1;align=center;verticalAlign=middle;resizable=0;points=[];autosize=1;strokeColor=none;fillColor=none;fontSize=15;fontFamily=Helvetica;rounded=1;labelBackgroundColor=none;fontColor=#143642;" parent="1" vertex="1">
          <mxGeometry x="1787.5" y="-393" width="41" height="30" as="geometry" />
        </mxCell>
        <mxCell id="KA5vXZ2nPaFK-a-9JE_G-210" value="0,N" style="text;html=1;align=center;verticalAlign=middle;resizable=0;points=[];autosize=1;strokeColor=none;fillColor=none;fontSize=15;fontFamily=Helvetica;rounded=1;labelBackgroundColor=none;fontColor=#143642;" parent="1" vertex="1">
          <mxGeometry x="1698" y="-630" width="41" height="30" as="geometry" />
        </mxCell>
        <mxCell id="KA5vXZ2nPaFK-a-9JE_G-211" value="1,1" style="text;html=1;align=center;verticalAlign=middle;resizable=0;points=[];autosize=1;strokeColor=none;fillColor=none;fontSize=15;fontFamily=Helvetica;rounded=1;labelBackgroundColor=none;fontColor=#143642;" parent="1" vertex="1">
          <mxGeometry x="1791.13" y="-626" width="39" height="30" as="geometry" />
        </mxCell>
        <mxCell id="KA5vXZ2nPaFK-a-9JE_G-212" value="1,3" style="text;html=1;align=center;verticalAlign=middle;resizable=0;points=[];autosize=1;strokeColor=none;fillColor=none;fontSize=15;fontFamily=Helvetica;rounded=1;labelBackgroundColor=none;fontColor=#143642;" parent="1" vertex="1">
          <mxGeometry x="1653" y="-676" width="39" height="30" as="geometry" />
        </mxCell>
        <mxCell id="KA5vXZ2nPaFK-a-9JE_G-213" value="1,N" style="text;html=1;align=center;verticalAlign=middle;resizable=0;points=[];autosize=1;strokeColor=none;fillColor=none;fontSize=15;fontFamily=Helvetica;rounded=1;labelBackgroundColor=none;fontColor=#143642;" parent="1" vertex="1">
          <mxGeometry x="1298" y="-685" width="41" height="30" as="geometry" />
        </mxCell>
        <mxCell id="KA5vXZ2nPaFK-a-9JE_G-214" value="1,N" style="text;html=1;align=center;verticalAlign=middle;resizable=0;points=[];autosize=1;strokeColor=none;fillColor=none;fontSize=15;fontFamily=Helvetica;rounded=1;labelBackgroundColor=none;fontColor=#143642;" parent="1" vertex="1">
          <mxGeometry x="1104" y="-677" width="41" height="30" as="geometry" />
        </mxCell>
        <mxCell id="KA5vXZ2nPaFK-a-9JE_G-215" value="1,1" style="text;html=1;align=center;verticalAlign=middle;resizable=0;points=[];autosize=1;strokeColor=none;fillColor=none;fontSize=15;fontFamily=Helvetica;rounded=1;labelBackgroundColor=none;fontColor=#143642;" parent="1" vertex="1">
          <mxGeometry x="1826" y="-153" width="39" height="30" as="geometry" />
        </mxCell>
        <mxCell id="KA5vXZ2nPaFK-a-9JE_G-216" value="1,1" style="text;html=1;align=center;verticalAlign=middle;resizable=0;points=[];autosize=1;strokeColor=none;fillColor=none;fontSize=15;fontFamily=Helvetica;rounded=1;labelBackgroundColor=none;fontColor=#143642;" parent="1" vertex="1">
          <mxGeometry x="1740.75" y="-96" width="39" height="30" as="geometry" />
        </mxCell>
        <mxCell id="KA5vXZ2nPaFK-a-9JE_G-217" value="1,N" style="text;html=1;align=center;verticalAlign=middle;resizable=0;points=[];autosize=1;strokeColor=none;fillColor=none;fontSize=15;fontFamily=Helvetica;rounded=1;labelBackgroundColor=none;fontColor=#143642;" parent="1" vertex="1">
          <mxGeometry x="1876" y="-96" width="41" height="30" as="geometry" />
        </mxCell>
        <mxCell id="KA5vXZ2nPaFK-a-9JE_G-218" value="1,1" style="text;html=1;align=center;verticalAlign=middle;resizable=0;points=[];autosize=1;strokeColor=none;fillColor=none;fontSize=15;fontFamily=Helvetica;rounded=1;labelBackgroundColor=none;fontColor=#143642;" parent="1" vertex="1">
          <mxGeometry x="1014" y="-789" width="39" height="30" as="geometry" />
        </mxCell>
        <mxCell id="KA5vXZ2nPaFK-a-9JE_G-220" value="1,1" style="text;html=1;align=center;verticalAlign=middle;resizable=0;points=[];autosize=1;strokeColor=none;fillColor=none;fontSize=15;fontFamily=Helvetica;rounded=1;labelBackgroundColor=none;fontColor=#143642;" parent="1" vertex="1">
          <mxGeometry x="1017" y="-854" width="39" height="30" as="geometry" />
        </mxCell>
        <mxCell id="KA5vXZ2nPaFK-a-9JE_G-221" value="1,20" style="text;html=1;align=center;verticalAlign=middle;resizable=0;points=[];autosize=1;strokeColor=none;fillColor=none;fontSize=15;fontFamily=Helvetica;rounded=1;labelBackgroundColor=none;fontColor=#143642;" parent="1" vertex="1">
          <mxGeometry x="1005" y="-998" width="47" height="30" as="geometry" />
        </mxCell>
        <mxCell id="KA5vXZ2nPaFK-a-9JE_G-222" value="1,1" style="text;html=1;align=center;verticalAlign=middle;resizable=0;points=[];autosize=1;strokeColor=none;fillColor=none;fontSize=15;fontFamily=Helvetica;rounded=1;labelBackgroundColor=none;fontColor=#143642;" parent="1" vertex="1">
          <mxGeometry x="1078" y="-877" width="39" height="30" as="geometry" />
        </mxCell>
        <mxCell id="KA5vXZ2nPaFK-a-9JE_G-223" value="1,1" style="text;html=1;align=center;verticalAlign=middle;resizable=0;points=[];autosize=1;strokeColor=none;fillColor=none;fontSize=15;fontFamily=Helvetica;rounded=1;labelBackgroundColor=none;fontColor=#143642;" parent="1" vertex="1">
          <mxGeometry x="1124" y="-834" width="39" height="30" as="geometry" />
        </mxCell>
        <mxCell id="KA5vXZ2nPaFK-a-9JE_G-224" value="1,N" style="text;html=1;align=center;verticalAlign=middle;resizable=0;points=[];autosize=1;strokeColor=none;fillColor=none;fontSize=15;fontFamily=Helvetica;rounded=1;labelBackgroundColor=none;fontColor=#143642;" parent="1" vertex="1">
          <mxGeometry x="1746" y="-693" width="41" height="30" as="geometry" />
        </mxCell>
        <mxCell id="KA5vXZ2nPaFK-a-9JE_G-225" value="1,N" style="text;html=1;align=center;verticalAlign=middle;resizable=0;points=[];autosize=1;strokeColor=none;fillColor=none;fontSize=15;fontFamily=Helvetica;rounded=1;labelBackgroundColor=none;fontColor=#143642;" parent="1" vertex="1">
          <mxGeometry x="928" y="-810" width="41" height="30" as="geometry" />
        </mxCell>
        <mxCell id="KA5vXZ2nPaFK-a-9JE_G-226" value="1,N" style="text;html=1;align=center;verticalAlign=middle;resizable=0;points=[];autosize=1;strokeColor=none;fillColor=none;fontSize=15;fontFamily=Helvetica;rounded=1;labelBackgroundColor=none;fontColor=#143642;" parent="1" vertex="1">
          <mxGeometry x="570" y="-812" width="41" height="30" as="geometry" />
        </mxCell>
        <mxCell id="KA5vXZ2nPaFK-a-9JE_G-229" value="1,N" style="text;html=1;align=center;verticalAlign=middle;resizable=0;points=[];autosize=1;strokeColor=none;fillColor=none;fontSize=15;fontFamily=Helvetica;rounded=1;labelBackgroundColor=none;fontColor=#143642;" parent="1" vertex="1">
          <mxGeometry x="572" y="-679" width="41" height="30" as="geometry" />
        </mxCell>
        <mxCell id="KA5vXZ2nPaFK-a-9JE_G-230" value="1,N" style="text;html=1;align=center;verticalAlign=middle;resizable=0;points=[];autosize=1;strokeColor=none;fillColor=none;fontSize=15;fontFamily=Helvetica;rounded=1;labelBackgroundColor=none;fontColor=#143642;" parent="1" vertex="1">
          <mxGeometry x="631" y="-654" width="41" height="30" as="geometry" />
        </mxCell>
        <mxCell id="KA5vXZ2nPaFK-a-9JE_G-231" value="1,1" style="text;html=1;align=center;verticalAlign=middle;resizable=0;points=[];autosize=1;strokeColor=none;fillColor=none;fontSize=15;fontFamily=Helvetica;rounded=1;labelBackgroundColor=none;fontColor=#143642;" parent="1" vertex="1">
          <mxGeometry x="569" y="-609" width="39" height="30" as="geometry" />
        </mxCell>
        <mxCell id="KA5vXZ2nPaFK-a-9JE_G-232" value="0,1" style="text;html=1;align=center;verticalAlign=middle;resizable=0;points=[];autosize=1;strokeColor=none;fillColor=none;fontSize=15;fontFamily=Helvetica;rounded=1;labelBackgroundColor=none;fontColor=#143642;" parent="1" vertex="1">
          <mxGeometry x="967" y="-396" width="39" height="30" as="geometry" />
        </mxCell>
        <mxCell id="KA5vXZ2nPaFK-a-9JE_G-233" value="1,N" style="text;html=1;align=center;verticalAlign=middle;resizable=0;points=[];autosize=1;strokeColor=none;fillColor=none;fontSize=15;fontFamily=Helvetica;rounded=1;labelBackgroundColor=none;fontColor=#143642;" parent="1" vertex="1">
          <mxGeometry x="1210" y="-442" width="41" height="30" as="geometry" />
        </mxCell>
        <mxCell id="KA5vXZ2nPaFK-a-9JE_G-234" value="1,N" style="text;html=1;align=center;verticalAlign=middle;resizable=0;points=[];autosize=1;strokeColor=none;fillColor=none;fontSize=15;fontFamily=Helvetica;rounded=1;labelBackgroundColor=none;fontColor=#143642;" parent="1" vertex="1">
          <mxGeometry x="1383" y="-443" width="41" height="30" as="geometry" />
        </mxCell>
        <mxCell id="nj4AOBOk8mtP1z4zq-uT-2" style="edgeStyle=orthogonalEdgeStyle;rounded=0;orthogonalLoop=1;jettySize=auto;html=1;exitX=0.152;exitY=-0.025;exitDx=0;exitDy=0;exitPerimeter=0;strokeColor=#A8201A;fontColor=#143642;fillColor=#FAE5C7;endArrow=oval;endFill=1;entryX=1.071;entryY=0.222;entryDx=0;entryDy=0;entryPerimeter=0;" edge="1" parent="1" source="9Mot5vRxFBjQDdBxqjVs-58" target="KA5vXZ2nPaFK-a-9JE_G-89">
          <mxGeometry relative="1" as="geometry">
            <mxPoint x="535" y="-820" as="sourcePoint" />
            <mxPoint x="497" y="-766" as="targetPoint" />
            <Array as="points">
              <mxPoint x="532" y="-666" />
              <mxPoint x="532" y="-666" />
            </Array>
          </mxGeometry>
        </mxCell>
        <mxCell id="nj4AOBOk8mtP1z4zq-uT-4" value="" style="endArrow=none;html=1;rounded=0;exitX=0.5;exitY=0;exitDx=0;exitDy=0;entryX=0.5;entryY=1;entryDx=0;entryDy=0;entryPerimeter=0;" edge="1" parent="1" source="9Mot5vRxFBjQDdBxqjVs-86" target="9Mot5vRxFBjQDdBxqjVs-58">
          <mxGeometry width="50" height="50" relative="1" as="geometry">
            <mxPoint x="770" y="-508" as="sourcePoint" />
            <mxPoint x="820" y="-558" as="targetPoint" />
          </mxGeometry>
        </mxCell>
        <mxCell id="nj4AOBOk8mtP1z4zq-uT-5" style="edgeStyle=orthogonalEdgeStyle;rounded=1;orthogonalLoop=1;jettySize=auto;html=1;fontFamily=Helvetica;fontSize=15;fontColor=default;endArrow=none;endFill=0;labelBackgroundColor=none;exitX=0;exitY=1;exitDx=0;exitDy=0;strokeColor=#A8201A;exitPerimeter=0;entryX=0.966;entryY=0.502;entryDx=0;entryDy=0;entryPerimeter=0;" edge="1" parent="1" source="IGpdcPXpx3QODBAOmaDT-12" target="nj4AOBOk8mtP1z4zq-uT-6">
          <mxGeometry relative="1" as="geometry">
            <mxPoint x="582.9200000000001" y="-372" as="sourcePoint" />
            <mxPoint x="902" y="-205" as="targetPoint" />
            <Array as="points">
              <mxPoint x="893" y="-220" />
              <mxPoint x="851" y="-220" />
            </Array>
          </mxGeometry>
        </mxCell>
        <mxCell id="nj4AOBOk8mtP1z4zq-uT-6" value="Possiede" style="rhombus;whiteSpace=wrap;html=1;fontFamily=Helvetica;fontSize=15;align=center;verticalAlign=middle;labelBackgroundColor=none;rounded=1;fillColor=#FAE5C7;strokeColor=#0F8B8D;fontColor=#143642;" vertex="1" parent="1">
          <mxGeometry x="711.0000000000002" y="-256" width="140" height="71" as="geometry" />
        </mxCell>
        <mxCell id="nj4AOBOk8mtP1z4zq-uT-7" value="Ruolo" style="whiteSpace=wrap;html=1;rounded=1;shadow=0;glass=0;fontSize=15;points=[[0,0,0,0,0],[0,0.25,0,0,0],[0,0.5,0,0,0],[0,0.75,0,0,0],[0,1,0,0,0],[0.25,0,0,0,0],[0.25,1,0,0,0],[0.5,0,0,0,0],[0.5,1,0,0,0],[0.75,0,0,0,0],[0.75,1,0,0,0],[1,0,0,0,0],[1,0.25,0,0,0],[1,0.5,0,0,0],[1,0.75,0,0,0],[1,1,0,0,0]];labelBackgroundColor=none;fillColor=#FAE5C7;strokeColor=#0F8B8D;fontColor=#143642;" vertex="1" parent="1">
          <mxGeometry x="535.0000000000002" y="-240.5" width="100" height="40" as="geometry" />
        </mxCell>
        <mxCell id="nj4AOBOk8mtP1z4zq-uT-8" value="" style="endArrow=none;html=1;rounded=0;exitX=1;exitY=0.5;exitDx=0;exitDy=0;exitPerimeter=0;entryX=0.031;entryY=0.507;entryDx=0;entryDy=0;entryPerimeter=0;strokeColor=#A8201A;" edge="1" parent="1" source="nj4AOBOk8mtP1z4zq-uT-7" target="nj4AOBOk8mtP1z4zq-uT-6">
          <mxGeometry width="50" height="50" relative="1" as="geometry">
            <mxPoint x="514" y="-87" as="sourcePoint" />
            <mxPoint x="675" y="-220" as="targetPoint" />
          </mxGeometry>
        </mxCell>
        <mxCell id="nj4AOBOk8mtP1z4zq-uT-9" value="1,N" style="text;html=1;align=center;verticalAlign=middle;resizable=0;points=[];autosize=1;strokeColor=none;fillColor=none;fontSize=15;fontFamily=Helvetica;rounded=1;labelBackgroundColor=none;fontColor=#143642;" vertex="1" parent="1">
          <mxGeometry x="857" y="-397" width="41" height="30" as="geometry" />
        </mxCell>
        <mxCell id="nj4AOBOk8mtP1z4zq-uT-10" value="1,N" style="text;html=1;align=center;verticalAlign=middle;resizable=0;points=[];autosize=1;strokeColor=none;fillColor=none;fontSize=15;fontFamily=Helvetica;rounded=1;labelBackgroundColor=none;fontColor=#143642;" vertex="1" parent="1">
          <mxGeometry x="635" y="-245" width="41" height="30" as="geometry" />
        </mxCell>
        <mxCell id="nj4AOBOk8mtP1z4zq-uT-12" style="edgeStyle=none;shape=connector;rounded=1;orthogonalLoop=1;jettySize=auto;html=1;labelBackgroundColor=none;fontFamily=Helvetica;fontSize=15;fontColor=default;endArrow=oval;endFill=0;strokeColor=#A8201A;exitX=0.385;exitY=0.962;exitDx=0;exitDy=0;exitPerimeter=0;entryX=0.492;entryY=0.024;entryDx=0;entryDy=0;entryPerimeter=0;" edge="1" parent="1" source="nj4AOBOk8mtP1z4zq-uT-7" target="nj4AOBOk8mtP1z4zq-uT-14">
          <mxGeometry relative="1" as="geometry">
            <mxPoint x="573.5595000000003" y="-190.00000000000023" as="sourcePoint" />
            <mxPoint x="574" y="-166" as="targetPoint" />
          </mxGeometry>
        </mxCell>
        <mxCell id="nj4AOBOk8mtP1z4zq-uT-14" value="Tipo" style="text;html=1;align=center;verticalAlign=middle;resizable=0;points=[];autosize=1;strokeColor=none;fillColor=none;fontSize=14;labelBackgroundColor=none;rounded=1;fontColor=#143642;" vertex="1" parent="1">
          <mxGeometry x="552" y="-157" width="45" height="29" as="geometry" />
        </mxCell>
        <mxCell id="nj4AOBOk8mtP1z4zq-uT-16" style="edgeStyle=none;shape=connector;rounded=1;orthogonalLoop=1;jettySize=auto;html=1;labelBackgroundColor=none;fontFamily=Helvetica;fontSize=15;fontColor=default;endArrow=oval;endFill=0;strokeColor=#A8201A;exitX=0.176;exitY=0.059;exitDx=0;exitDy=0;exitPerimeter=0;entryX=1.011;entryY=1.021;entryDx=0;entryDy=0;entryPerimeter=0;" edge="1" parent="1" source="Dx_CMPOLSW68eJcPcujk-12" target="nj4AOBOk8mtP1z4zq-uT-17">
          <mxGeometry relative="1" as="geometry">
            <mxPoint x="915" y="-823" as="sourcePoint" />
            <mxPoint x="964" y="-843" as="targetPoint" />
          </mxGeometry>
        </mxCell>
        <mxCell id="nj4AOBOk8mtP1z4zq-uT-17" value="&lt;span style=&quot;font-size: 15px;&quot;&gt;Ombra&lt;br&gt;&lt;/span&gt;" style="text;html=1;align=center;verticalAlign=middle;resizable=0;points=[];autosize=1;strokeColor=none;fillColor=none;fontSize=15;fontFamily=Helvetica;labelBackgroundColor=none;rounded=1;fontColor=#143642;arcSize=0;rotation=0;" vertex="1" parent="1">
          <mxGeometry x="874" y="-904" width="64" height="30" as="geometry" />
        </mxCell>
        <mxCell id="nj4AOBOk8mtP1z4zq-uT-18" style="edgeStyle=none;shape=connector;rounded=1;orthogonalLoop=1;jettySize=auto;html=1;labelBackgroundColor=none;fontFamily=Helvetica;fontSize=15;fontColor=default;endArrow=oval;endFill=0;strokeColor=#A8201A;exitX=0;exitY=0.25;exitDx=0;exitDy=0;exitPerimeter=0;entryX=0.27;entryY=1.135;entryDx=0;entryDy=0;entryPerimeter=0;" edge="1" parent="1" source="Dx_CMPOLSW68eJcPcujk-12" target="nj4AOBOk8mtP1z4zq-uT-19">
          <mxGeometry relative="1" as="geometry">
            <mxPoint x="909" y="-826" as="sourcePoint" />
            <mxPoint x="927" y="-829" as="targetPoint" />
          </mxGeometry>
        </mxCell>
        <mxCell id="nj4AOBOk8mtP1z4zq-uT-19" value="&lt;span style=&quot;font-size: 15px;&quot;&gt;Sole&lt;br&gt;&lt;/span&gt;" style="text;html=1;align=center;verticalAlign=middle;resizable=0;points=[];autosize=1;strokeColor=none;fillColor=none;fontSize=15;fontFamily=Helvetica;labelBackgroundColor=none;rounded=1;fontColor=#143642;arcSize=0;rotation=0;" vertex="1" parent="1">
          <mxGeometry x="893" y="-859" width="48" height="30" as="geometry" />
        </mxCell>
        <mxCell id="nj4AOBOk8mtP1z4zq-uT-20" value="0,1" style="text;html=1;align=center;verticalAlign=middle;resizable=0;points=[];autosize=1;strokeColor=none;fillColor=none;fontSize=15;fontFamily=Helvetica;rounded=1;labelBackgroundColor=none;fontColor=#143642;" vertex="1" parent="1">
          <mxGeometry x="931.25" y="-845" width="40" height="30" as="geometry" />
        </mxCell>
        <mxCell id="nj4AOBOk8mtP1z4zq-uT-21" value="0,1" style="text;html=1;align=center;verticalAlign=middle;resizable=0;points=[];autosize=1;strokeColor=none;fillColor=none;fontSize=15;fontFamily=Helvetica;rounded=1;labelBackgroundColor=none;fontColor=#143642;" vertex="1" parent="1">
          <mxGeometry x="958" y="-869" width="40" height="30" as="geometry" />
        </mxCell>
        <mxCell id="nj4AOBOk8mtP1z4zq-uT-22" value="0,1" style="text;html=1;align=center;verticalAlign=middle;resizable=0;points=[];autosize=1;strokeColor=none;fillColor=none;fontSize=15;fontFamily=Helvetica;rounded=1;labelBackgroundColor=none;fontColor=#143642;" vertex="1" parent="1">
          <mxGeometry x="982" y="-856" width="40" height="30" as="geometry" />
        </mxCell>
      </root>
    </mxGraphModel>
  </diagram>
</mxfile>
